<?xml version="1.0" encoding="UTF-8"?>
<svg width="688px" height="484px" viewBox="0 0 688 484" version="1.1" xmlns="http://www.w3.org/2000/svg" xmlns:xlink="http://www.w3.org/1999/xlink">
    <!-- Generator: Sketch 60.1 (88133) - https://sketch.com -->
    <title>5</title>
    <desc>Created with Sketch.</desc>
    <defs>
        <path d="M243.807959,46.4212928 C122.666938,10.7840355 65.0164515,58.0951486 35.1186068,97.5242015 C5.22076214,136.953254 -22.2621893,223.105211 27.160325,280.119203 C76.5828394,337.133196 127.949603,294.63639 185.57758,380.850528 C243.205558,467.064666 376.979521,449.433905 455.870323,435.629079 C534.761125,421.824252 567.80536,354.245644 641.297287,298.034948 C714.789214,241.824252 683.756889,133.388824 663.211305,97.5242015 C642.665721,61.6595794 555.615802,-20.1721156 443.618607,4.58894897 C331.621412,29.3500135 364.94898,82.0585501 243.807959,46.4212928 Z" id="path-1"></path>
        <path d="M301,224.440759 C247.047765,74.8135864 146.714431,0 0,0 C61.2288612,31.4793496 123.228265,139.47935 185.99821,324 L289.179053,258.432067 L301,224.440759 Z" id="path-3"></path>
        <path d="M221,164.209758 C148.516201,42.6919515 74.8495342,-11.3820372 0,1.98779135 C31.9346589,31.11493 52.0130057,58.7638458 60.2350403,84.9345388 C72.5680923,124.190578 115.346164,187.058505 161.639674,175.634131 C192.502013,168.017882 212.288789,164.209758 221,164.209758 Z" id="path-5"></path>
        <path d="M61.1541491,155.672348 C99.051439,152.687505 120.382798,135.440407 125.148227,103.931053 C145.631558,103.438442 155.873223,88.2935772 155.873223,58.49646 C171.308997,49.9524994 176.683689,30.8776107 171.9973,1.27179377 C141.889801,-2.91730472 121.623281,3.24229477 111.197739,19.7505922 C76.2380872,18.0419757 55.6318064,29.9775033 49.3788962,55.5571751 C20.3208677,56.6571427 3.99644703,67.7923945 0.405634351,88.9629302 C-3.18517832,110.133466 17.0643266,132.369938 61.1541491,155.672348 Z" id="path-7"></path>
        <path d="M162.925462,63.6272058 C158.114353,89.5127152 157.926312,98.4102858 128.928946,118.583463 C99.9315799,138.756641 72.8742513,121.956027 72.8742513,121.956027 C78.2525422,165.31458 57.3875864,185.768529 10.2793837,183.317875 C-1.94460401,163.31363 -3.26624487,144.306921 6.31446118,126.297749 C-1.74124866,89.0303813 13.2233337,66.6809682 51.2082083,59.2495094 C47.3449505,38.5297888 55.1861256,21.283484 74.7317338,7.51059518 C104.050146,-13.1487381 156.210269,14.516058 161.021378,22.4560266 C165.832487,30.3959952 167.736571,37.7416964 162.925462,63.6272058 Z" id="path-9"></path>
        <path d="M55.5684824,146.584871 L70.790104,151.288734 C71.8442739,151.616314 72.4354553,152.73511 72.1121028,153.790584 L21.4154712,318.349326 C21.0917197,319.400208 19.9803197,319.992613 18.927407,319.675531 L1.9474553,314.562051 C0.889804387,314.243541 0.290611918,313.127943 0.60912146,312.070292 C0.612347401,312.05958 0.615663165,312.048895 0.619068402,312.038238 L53.0728852,147.886946 C53.4068234,146.841905 54.520292,146.260954 55.5684824,146.584871 Z" id="path-11"></path>
        <path d="M0.441067527,40.3464796 C4.28104716,21.5512034 13.0648778,12.1535652 26.7925594,12.1535652 C40.5202411,12.1535652 48.8621303,21.5512034 51.8182272,40.3464796 L51.8182272,427.068766 C49.0310502,464.44915 64.9271909,483.139343 99.5066494,483.139343 L316.918243,445.718692 C335.200056,426.139359 337.27481,407.863435 323.142507,390.890922 L306.718331,392.854913 L306.718331,35.8831112 C303.566798,15.8450887 296.014443,3.88405167 284.061269,0 L42.6446565,9.51244464 L26.7925594,9.51244464 C12.3971844,10.5876742 3.61335378,18.9569478 0.441067527,34.6202652 L0.392691505,37.9736324 L0.441067527,40.3464796 Z" id="path-13"></path>
        <path d="M1.88824684,8.42925813 L142.888247,0.538331916 C143.991091,0.476612347 144.935156,1.32061031 144.996875,2.42345412 C144.998958,2.46066878 145,2.49793439 145,2.53520728 L145,68.5289482 C145,69.5901012 144.171248,70.46653 143.111753,70.5258236 L2.11175316,78.4167498 C1.00890935,78.4784694 0.0648442017,77.6344714 0.00312463327,76.5316276 C0.00104195139,76.4944129 -6.61569202e-16,76.4571473 0,76.4198744 L0,10.4261335 C3.14135453e-16,9.36498054 0.828751739,8.48855173 1.88824684,8.42925813 Z" id="path-15"></path>
        <path d="M2.00685364,8.42925813 L143.006854,0.538331916 C144.109697,0.476612347 145.053763,1.32061031 145.115482,2.42345412 C145.117565,2.46066878 145.118607,2.49793439 145.118607,2.53520728 L145.118607,68.5289482 C145.118607,69.5901012 144.289855,70.46653 143.23036,70.5258236 L2.23035997,78.4167498 C1.12751615,78.4784694 0.183451004,77.6344714 0.121731436,76.5316276 C0.119648754,76.4944129 0.118606803,76.4571473 0.118606803,76.4198744 L0.118606803,10.4261335 C0.118606803,9.36498054 0.947358542,8.48855173 2.00685364,8.42925813 Z" id="path-17"></path>
    </defs>
    <g id="页面-1" stroke="none" stroke-width="1" fill="none" fill-rule="evenodd">
        <g id="画板" transform="translate(-1292.000000, -1810.000000)">
            <g id="5" transform="translate(1292.332298, 1810.000000)">
                <g id="编组-98" transform="translate(0.000000, 25.998857)">
                    <mask id="mask-2" fill="white">
                        <use xlink:href="#path-1"></use>
                    </mask>
                    <use id="路径-311" fill="#F3F7FF" xlink:href="#path-1"></use>
                    <rect id="矩形" fill="#D0DEFE" mask="url(#mask-2)" x="33" y="295.001143" width="619" height="163"></rect>
                    <rect id="矩形" fill="#C4D6FF" mask="url(#mask-2)" transform="translate(343.000000, 288.001143) scale(1, -1) translate(-343.000000, -288.001143) " x="18" y="281.001143" width="650" height="14"></rect>
                </g>
                <g id="编组-82" transform="translate(86.000000, 120.000000)">
                    <mask id="mask-4" fill="white">
                        <use xlink:href="#path-3"></use>
                    </mask>
                    <use id="路径-312" fill="#E9FFF3" xlink:href="#path-3"></use>
                    <path d="M294,224.440759 C240.047765,74.8135864 139.714431,0 -7,0 C54.2288612,31.4793496 116.228265,139.47935 178.99821,324 L282.179053,258.432067 L294,224.440759 Z" id="路径-312" fill="#D3F0E0" mask="url(#mask-4)"></path>
                    <path d="M190,319.796875 C136.514323,156.673149 77.8203125,52.5152267 13.9179688,7.3231088 L179.619141,331.162109 L190,319.796875 Z" id="路径-350" fill="#C8E4D4" mask="url(#mask-4)"></path>
                    <path d="M181.839245,66.526547 C182.100725,66.4377643 182.38467,66.5777638 182.473453,66.8392446 C188.201478,83.7092905 189.038031,109.486618 184.999853,144.190847 C184.967937,144.465138 184.719706,144.661622 184.445414,144.629706 C184.171122,144.597789 183.974638,144.349558 184.006555,144.075267 L184.242081,142.01179 C187.993864,108.48327 187.083434,83.5267695 181.526547,67.1607554 C181.437764,66.8992745 181.577764,66.6153298 181.839245,66.526547 Z" id="路径-334" fill="#9FC8B1" fill-rule="nonzero" mask="url(#mask-4)"></path>
                    <path d="M41.568241,15.7478409 C41.7075046,15.509387 42.0137052,15.4289774 42.2521591,15.568241 C144.942808,75.542392 217.352792,166.972509 259.472979,289.837855 C259.562529,290.099074 259.423364,290.383429 259.162145,290.472979 C258.900926,290.562529 258.616571,290.423364 258.527021,290.162145 C216.482815,167.518436 144.226131,76.2818865 41.7478409,16.431759 C41.509387,16.2924954 41.4289774,15.9862948 41.568241,15.7478409 Z" id="路径-329" fill="#9FC8B1" fill-rule="nonzero" mask="url(#mask-4)"></path>
                    <path d="M78,65.5 C87.3731461,65.5 106.746735,72.7718646 136.221325,87.3219166 C136.468941,87.4441512 136.570582,87.7439737 136.448347,87.991589 C136.326112,88.2392043 136.02629,88.3408453 135.778675,88.2186107 L134.031123,87.3586752 C105.684468,73.4548754 86.9758787,66.5 78,66.5 C77.7238576,66.5 77.5,66.2761424 77.5,66 C77.5,65.7238576 77.7238576,65.5 78,65.5 Z" id="路径-330" fill="#9FC8B1" fill-rule="nonzero" mask="url(#mask-4)"></path>
                    <path d="M75.6145694,14.6814985 C75.7904729,14.468631 76.1056341,14.4386658 76.3185015,14.6145694 C95.6815809,30.6152972 108.152874,47.8951353 113.718431,66.4542782 C113.797751,66.7187832 113.647629,66.9975087 113.383124,67.0768291 C113.118619,67.1561494 112.839894,67.0060276 112.760573,66.7415226 C107.256201,48.3864073 94.9011603,31.2676451 75.6814985,15.3854306 C75.468631,15.2095271 75.4386658,14.8943659 75.6145694,14.6814985 Z" id="路径-331" fill="#9FC8B1" fill-rule="nonzero" mask="url(#mask-4)"></path>
                    <path d="M94.0676431,101.504597 C113.473213,104.154262 137.504127,110.495753 166.165189,120.528076 C166.425826,120.619307 166.563156,120.904553 166.471924,121.165189 C166.380693,121.425826 166.095447,121.563156 165.834811,121.471924 L163.323063,120.598088 C135.826113,111.091127 112.694414,105.057202 93.9323569,102.495403 C93.6587532,102.458045 93.4672385,102.205961 93.5045967,101.932357 C93.5378041,101.689154 93.7406716,101.510811 93.9775039,101.500419 L94.0676431,101.504597 Z" id="路径-332" fill="#9FC8B1" fill-rule="nonzero" mask="url(#mask-4)"></path>
                    <path d="M135.715976,34.5885025 C135.943239,34.4316402 136.254635,34.4887119 136.411497,34.7159757 C146.976554,50.0227439 151.998106,72.8695807 151.499933,103.254534 C151.495406,103.53064 151.267909,103.750798 150.991803,103.746339 C150.715698,103.741744 150.49554,103.514247 150.500067,103.238141 L150.524056,101.341123 C150.783091,72.0928272 145.797137,50.0744046 135.588503,35.2840243 C135.43164,35.0567605 135.488712,34.7453648 135.715976,34.5885025 Z" id="路径-333" fill="#9FC8B1" fill-rule="nonzero" mask="url(#mask-4)"></path>
                    <path d="M132.120854,145.514825 C151.065646,150.233839 173.886621,157.529348 200.585755,167.401392 C200.84476,167.49716 200.97709,167.784759 200.881322,168.043763 C200.785555,168.302768 200.497956,168.435097 200.238952,168.33933 L197.540408,167.345473 C172.03131,157.988172 150.143628,151.034727 131.879146,146.485175 C131.611192,146.418429 131.44808,146.147101 131.514825,145.879146 C131.574155,145.640965 131.79513,145.485621 132.031696,145.500919 L132.120854,145.514825 Z" id="路径-335" fill="#9FC8B1" fill-rule="nonzero" mask="url(#mask-4)"></path>
                    <path d="M224.62041,103.511954 C224.88995,103.451932 225.157113,103.62178 225.217136,103.89132 C228.901023,120.434426 224.646899,147.839221 212.476534,186.151377 C212.392931,186.41456 212.111805,186.560138 211.848623,186.476534 C211.58544,186.392931 211.439862,186.111805 211.523466,185.848623 L212.241229,183.572385 C223.81009,146.607361 227.803199,120.10513 224.241044,104.10868 C224.181022,103.83914 224.35087,103.571977 224.62041,103.511954 Z" id="路径-336" fill="#9FC8B1" fill-rule="nonzero" mask="url(#mask-4)"></path>
                    <path d="M150.956754,200.501787 L151.046989,200.502213 C176.078988,202.86514 204.48026,213.557383 236.256728,232.570942 C236.49369,232.712729 236.570845,233.019766 236.429058,233.256728 C236.287271,233.49369 235.980234,233.570845 235.743272,233.429058 C204.084936,214.486184 175.819542,203.845094 150.953011,201.497787 C150.678091,201.471836 150.476261,201.227931 150.502213,200.953011 C150.525281,200.708637 150.720559,200.522015 150.956754,200.501787 Z" id="路径-337" fill="#9FC8B1" fill-rule="nonzero" mask="url(#mask-4)"></path>
                </g>
                <g id="编组-83" transform="translate(113.000000, 282.000000)">
                    <mask id="mask-6" fill="white">
                        <use xlink:href="#path-5"></use>
                    </mask>
                    <use id="路径-313" fill="#FFF5E4" xlink:href="#path-5"></use>
                    <path d="M221,168.209758 C148.516201,46.6919515 74.8495342,-7.3820372 0,5.98779135 C31.9346589,35.11493 52.0130057,62.7638458 60.2350403,88.9345388 C72.5680923,128.190578 115.346164,191.058505 161.639674,179.634131 C192.502013,172.017882 212.288789,168.209758 221,168.209758 Z" id="路径-313" fill="#FFE2AF" mask="url(#mask-6)"></path>
                    <path d="M23.6289903,9.29268292 C23.7434883,9.04139662 24.0400152,8.93050784 24.2913015,9.0450059 C61.3894203,25.9486838 116.338077,79.5577483 189.199737,169.8968 C189.373097,170.111744 189.339387,170.426526 189.124443,170.599886 C188.909499,170.773246 188.594716,170.739536 188.421356,170.524592 C115.655412,80.304216 60.786361,26.7728165 23.8766673,9.9549941 C23.625381,9.84049604 23.5144922,9.54396922 23.6289903,9.29268292 Z" id="路径-339" fill="#F6CC82" fill-rule="nonzero" mask="url(#mask-6)"></path>
                    <path d="M62.5637083,16.9070593 C62.7628173,16.7157214 63.0793371,16.7220211 63.270675,16.9211301 C71.5202317,25.5057385 77.91697,36.9835879 82.4649627,51.3490868 C82.5483098,51.6123507 82.4024584,51.8933344 82.1391945,51.9766814 C81.8759306,52.0600285 81.5949469,51.9141771 81.5115998,51.6509132 C77.0075092,37.4240854 70.6854975,26.0803201 62.5496375,17.6140261 C62.3582995,17.4149171 62.3645992,17.0983973 62.5637083,16.9070593 Z" id="路径-340" fill="#F6CC82" fill-rule="nonzero" mask="url(#mask-6)"></path>
                    <path d="M56.0350963,58.0003536 C56.2032963,57.7813482 56.5171883,57.7401623 56.7361937,57.9083623 C68.4741805,66.9233438 85.0669859,72.978401 106.518402,76.0617269 C106.791735,76.1010146 106.981467,76.3544439 106.942179,76.6277772 C106.902892,76.9011105 106.649462,77.090842 106.376129,77.0515543 C84.7676495,73.9456528 68.0167049,67.8328874 56.1270875,58.701451 C55.9080822,58.533251 55.8668963,58.219359 56.0350963,58.0003536 Z" id="路径-341" fill="#F6CC82" fill-rule="nonzero" mask="url(#mask-6)"></path>
                    <path d="M115.681502,43.9041334 C115.902843,43.7390189 116.216127,43.7845995 116.381242,44.0059404 C125.716057,56.5195406 129.997429,74.8578195 129.248783,99.0115838 C129.240229,99.2875936 129.009543,99.5044087 128.733533,99.4960985 C128.457524,99.4872988 128.240709,99.2566135 128.249263,98.9806037 C128.991503,75.0335361 124.760505,56.9110236 115.579696,44.6038729 C115.414581,44.382532 115.460162,44.069248 115.681502,43.9041334 Z" id="路径-342" fill="#F6CC82" fill-rule="nonzero" mask="url(#mask-6)"></path>
                    <path d="M84.1767064,110.905655 C84.3151062,110.666699 84.6210138,110.585182 84.85997,110.723581 C97.7381821,118.182445 119.243369,122.023653 149.356788,122.220714 C149.632924,122.222521 149.855312,122.447839 149.853516,122.723975 C149.851698,123.000111 149.62638,123.222499 149.350244,123.220703 C119.078245,123.022594 97.4206721,119.154167 84.35878,111.588919 C84.1198237,111.450519 84.0383066,111.144611 84.1767064,110.905655 Z" id="路径-343" fill="#F6CC82" fill-rule="nonzero" mask="url(#mask-6)"></path>
                    <path d="M167.261446,95.3249931 C167.494623,95.1770633 167.803571,95.2461695 167.951501,95.4793462 C174.907283,106.443507 177.029502,125.211607 174.359804,151.803852 C174.33222,152.078613 174.08712,152.27899 173.812359,152.251405 C173.537598,152.223821 173.337221,151.978722 173.364806,151.70396 L173.527461,150.030164 C175.922634,124.528121 173.769497,106.516767 167.107093,96.0150475 C166.959163,95.7818708 167.02827,95.4729229 167.261446,95.3249931 Z" id="路径-344" fill="#F6CC82" fill-rule="nonzero" mask="url(#mask-6)"></path>
                    <path d="M50.9824219,65.0235317 C56.4928385,75.0664115 62.3815104,85.9869086 68.6484375,97.7850229 C78.0488281,115.482194 100.677734,176.649462 188.810547,176.649462 C171.240234,191.534196 159.373698,198.513672 153.210938,197.587891 L61.25,153.566406 L50.9824219,65.0235317 Z" id="路径-349" fill="#FFD997" mask="url(#mask-6)"></path>
                </g>
                <g id="编组-80" transform="translate(508.118607, 228.823109) rotate(-18.000000) translate(-508.118607, -228.823109) translate(421.118607, 150.823109)">
                    <mask id="mask-8" fill="white">
                        <use xlink:href="#path-7"></use>
                    </mask>
                    <use id="路径-316" fill="#DEF6E9" xlink:href="#path-7"></use>
                    <path d="M58.3009796,154.745297 C96.1982694,151.760454 117.529629,134.513356 122.295058,103.004002 C142.778388,102.511391 153.020053,87.3665263 153.020053,57.569409 C168.455827,49.0254484 173.83052,29.9505597 169.14413,0.344742788 C139.036632,-3.8443557 118.770111,2.31524378 108.344569,18.8235412 C73.3849177,17.1149247 52.7786368,29.0504523 46.5257267,54.6301241 C17.4676981,55.7300918 1.14327748,66.8653435 -2.4475352,88.0358792 C-6.03834787,109.206415 14.211157,131.442887 58.3009796,154.745297 Z" id="路径-316" fill="#B7E0C9" mask="url(#mask-8)"></path>
                    <path d="M171.733203,0.84723169 C171.967683,0.701375139 172.276006,0.773217962 172.421862,1.00769713 C172.567719,1.24217629 172.495876,1.5504993 172.261397,1.69635585 C165.166506,6.1096957 119.180338,51.7358331 34.5773822,138.320094 C34.3843929,138.517603 34.0678316,138.521267 33.8703227,138.328277 C33.6728139,138.135288 33.66915,137.818727 33.8621393,137.621218 L46.2899734,124.913091 C123.1507,46.3885896 164.886663,5.106087 171.733203,0.84723169 Z" id="路径-317" fill="#89B89E" fill-rule="nonzero" mask="url(#mask-8)"></path>
                    <path d="M155.28318,44.3541094 C155.552511,44.2931576 155.820259,44.4620827 155.881211,44.7314143 C155.93539,44.9708201 155.807938,45.2089744 155.589787,45.3017504 L155.503906,45.3294453 L117.58096,53.9117043 C117.311628,53.9726562 117.043881,53.803731 116.982929,53.5343995 C116.928749,53.2949937 117.056201,53.0568394 117.274353,52.9640634 L117.360234,52.9363685 L155.28318,44.3541094 Z" id="路径-324" fill="#89B89E" fill-rule="nonzero" mask="url(#mask-8)"></path>
                    <path d="M113.541836,29.9893249 L113.630835,30.0042161 C113.868347,30.0661741 114.021238,30.2888522 114.003328,30.5252348 L113.988436,30.6142335 L104.544373,66.8173748 C104.474671,67.0845753 104.201557,67.2446789 103.934356,67.1749762 C103.696844,67.1130182 103.543953,66.8903401 103.561863,66.6539575 L103.576755,66.5649587 L113.020818,30.3618175 C113.082776,30.1243059 113.305454,29.9714141 113.541836,29.9893249 Z" id="路径-325" fill="#89B89E" fill-rule="nonzero" mask="url(#mask-8)"></path>
                    <path d="M84.1039474,86.4296507 L135.563487,86.9810698 C135.839613,86.9840287 136.061059,87.2102721 136.05813,87.4863986 C136.055471,87.7318444 135.876418,87.9340859 135.642729,87.9739202 L135.552772,87.9810124 L84.0932325,87.4295932 C83.8171059,87.4266344 83.5956598,87.200391 83.5985893,86.9242645 C83.6012487,86.6788187 83.7803012,86.4765771 84.0139906,86.4367428 L84.1039474,86.4296507 Z" id="路径-326" fill="#89B89E" fill-rule="nonzero" mask="url(#mask-8)"></path>
                    <path d="M77.8017874,36.9097004 C78.0438269,36.9505346 78.2157061,37.1589068 78.2186492,37.3959487 L78.2116411,37.4859121 L66.7023814,105.705542 C66.6564429,105.977837 66.3984641,106.161335 66.1261697,106.115396 C65.8841302,106.074562 65.712251,105.86619 65.7093079,105.629148 L65.716316,105.539184 L77.2255757,37.3195541 C77.2664099,37.0775146 77.4747821,36.9056354 77.711824,36.9026923 L77.8017874,36.9097004 Z" id="路径-327" fill="#89B89E" fill-rule="nonzero" mask="url(#mask-8)"></path>
                    <path d="M45.9933361,124.892919 L106.261079,128.705216 C106.53667,128.722649 106.745949,128.960192 106.728516,129.235784 C106.713021,129.480754 106.52361,129.673329 106.288154,129.700856 L106.197949,129.703221 L45.9302063,125.890925 C45.6546148,125.873492 45.4453357,125.635949 45.4627686,125.360357 C45.4782644,125.115387 45.6676746,124.922812 45.9031312,124.895285 L45.9933361,124.892919 Z" id="路径-328" fill="#89B89E" fill-rule="nonzero" mask="url(#mask-8)"></path>
                </g>
                <g id="编组-79" transform="translate(544.118607, 298.823109) scale(-1, -1) translate(-544.118607, -298.823109) translate(461.118607, 206.823109)">
                    <mask id="mask-10" fill="white">
                        <use xlink:href="#path-9"></use>
                    </mask>
                    <use id="路径-314" fill="#ECFFF5" xlink:href="#path-9"></use>
                    <path d="M165.925462,63.6272058 C161.114353,89.5127152 160.926312,98.4102858 131.928946,118.583463 C102.93158,138.756641 75.8742513,121.956027 75.8742513,121.956027 C81.2525422,165.31458 60.3875864,185.768529 13.2793837,183.317875 C1.05539599,163.31363 -0.266244866,144.306921 9.31446118,126.297749 C1.25875134,89.0303813 16.2233337,66.6809682 54.2082083,59.2495094 C50.3449505,38.5297888 58.1861256,21.283484 77.7317338,7.51059518 C107.050146,-13.1487381 159.210269,14.516058 164.021378,22.4560266 C168.832487,30.3959952 170.736571,37.7416964 165.925462,63.6272058 Z" id="路径-314" fill="#D3F0E0" mask="url(#mask-10)"></path>
                    <path d="M162.672153,21.9835017 C162.933122,21.8932235 163.217863,22.0315952 163.308141,22.2925635 C163.398419,22.5535318 163.260048,22.8382734 162.999079,22.9285516 C90.2173376,48.1063302 46.2532124,86.2169814 31.0488349,137.254586 C30.9699947,137.519235 30.6915421,137.669862 30.4268936,137.591022 C30.1622451,137.512182 30.0116177,137.233729 30.0904579,136.969081 C45.3982487,85.5843408 89.6114368,47.2577875 162.672153,21.9835017 Z" id="路径-315" fill="#9FC8B1" fill-rule="nonzero" mask="url(#mask-10)"></path>
                    <path d="M56.9346009,87.6761705 C57.2083709,87.6400516 57.4595856,87.8327058 57.4957045,88.1064759 C57.5318234,88.3802459 57.3391692,88.6314606 57.0653991,88.6675795 C36.6527591,91.3606528 22.2277701,96.2749232 13.7968805,103.382284 C13.5857507,103.56027 13.2703105,103.533401 13.0923251,103.322271 C12.9143396,103.111141 12.9412084,102.795701 13.1523382,102.617716 C21.757907,95.3630976 36.349845,90.3919513 56.9346009,87.6761705 Z" id="路径-318" fill="#9FC8B1" fill-rule="nonzero" mask="url(#mask-10)"></path>
                    <path d="M57.0262153,57.0442121 C67.6995291,54.0298619 80.9346258,53.0230798 96.7340729,54.0185677 C97.0096688,54.0359324 97.2190065,54.2734238 97.2016418,54.5490197 C97.1842771,54.8246155 96.9467857,55.0339533 96.6711898,55.0165886 C80.9765035,54.0277014 67.8512522,55.0261277 57.2980035,58.0065692 C57.0322559,58.0816214 56.7559831,57.9270323 56.6809308,57.6612847 C56.6058786,57.3955372 56.7604677,57.1192643 57.0262153,57.0442121 Z" id="路径-319" fill="#9FC8B1" fill-rule="nonzero" mask="url(#mask-10)"></path>
                    <path d="M64.0297586,30.713204 C78.3742874,26.332995 101.109733,27.6067077 132.266391,34.511845 C132.535992,34.5715956 132.706109,34.8385874 132.646358,35.108188 C132.586608,35.3777886 132.319616,35.5479056 132.050015,35.488155 C101.047819,28.6172506 78.4616501,27.3519009 64.3218039,31.6696085 C64.0577001,31.7502546 63.7782251,31.6015327 63.697579,31.3374289 C63.6169329,31.0733251 63.7656548,30.7938501 64.0297586,30.713204 Z" id="路径-320" fill="#9FC8B1" fill-rule="nonzero" mask="url(#mask-10)"></path>
                    <path d="M112.716042,43.621038 C112.983586,43.5526642 113.255901,43.7141233 113.324274,43.981667 C119.669034,68.8084191 117.366483,89.857129 106.400395,107.096486 C106.252184,107.329484 105.943152,107.398216 105.710155,107.250005 C105.477157,107.101793 105.408424,106.792762 105.556636,106.559764 C116.363985,89.5699544 118.635653,68.8035601 112.355413,44.2292705 C112.287039,43.9617269 112.448498,43.6894119 112.716042,43.621038 Z" id="路径-321" fill="#9FC8B1" fill-rule="nonzero" mask="url(#mask-10)"></path>
                    <path d="M73.1041485,71.656484 C73.3639814,71.5629882 73.6504109,71.6978311 73.7439066,71.9576641 C78.7533494,85.8793467 78.7533494,98.9646439 73.7359967,111.189839 C73.6311514,111.445304 73.3390626,111.567405 73.0835982,111.462559 C72.8281338,111.357714 72.7060329,111.065625 72.8108783,110.810161 C77.7310256,98.8218144 77.7310256,85.9917471 72.8029684,72.2962422 C72.7094726,72.0364092 72.8443155,71.7499797 73.1041485,71.656484 Z" id="路径-322" fill="#9FC8B1" fill-rule="nonzero" mask="url(#mask-10)"></path>
                    <path d="M38.824559,113.881098 C39.077917,113.771261 39.3723453,113.887607 39.4821829,114.140965 C46.8597807,131.158582 47.8527585,146.679771 42.4429555,160.680215 C42.3434254,160.937797 42.0539289,161.065923 41.7963472,160.966393 C41.5387654,160.866863 41.4106393,160.577366 41.5101695,160.319785 C46.8191165,146.580353 45.8433443,131.328105 38.5646921,114.538722 C38.4548545,114.285364 38.5712009,113.990936 38.824559,113.881098 Z" id="路径-323" fill="#9FC8B1" fill-rule="nonzero" mask="url(#mask-10)"></path>
                </g>
                <g id="编组-78" transform="translate(155.118607, 0.000000)">
                    <g id="编组-99" transform="translate(403.549095, 254.000000) rotate(11.000000) translate(-403.549095, -254.000000) translate(319.549095, 73.000000)">
                        <path d="M64.8597213,155.97 C64.0881555,172.105095 60.9650809,185.839561 55.4904977,197.173398 L64.0027531,199.97 C70.9350425,177.846213 77.0976241,164.981933 82.4904977,161.37716 L71.218513,158.322355 L64.8597213,155.97 Z" id="路径-308" fill="#A4C3FC"></path>
                        <path d="M93.944885,156.531039 C66.8232551,147.342659 46.1931865,128.842236 47.3016647,87.1649673 C48.4101428,45.4876987 67.8080156,15.8108313 97.9590394,5.6042981 C62.8297855,6.44674148 33.4532994,40.9157785 32.3448213,82.5930471 C31.2363431,124.270316 58.8156311,157.373482 93.944885,156.531039 Z" id="椭圆形" fill="#FFFFFF" transform="translate(65.135792, 81.075533) rotate(13.000000) translate(-65.135792, -81.075533) "></path>
                        <path d="M97.9590394,5.6042981 C67.8080156,15.8108313 48.4101428,45.4876987 47.3016647,87.1649673 C46.1931865,128.842236 66.8232551,147.342659 93.944885,156.531039 C58.8156311,157.373482 31.2363431,124.270316 32.3448213,82.5930471 C33.4532994,40.9157785 62.8297855,6.44674148 97.9590394,5.6042981 Z M91.199,7.199 L90.8153921,7.25688932 C59.5036559,12.2292791 34.3629744,44.3251725 33.3444678,82.6196344 C32.326167,120.906356 55.7746816,151.793316 86.8486051,155.229 L87.832,155.327 L87.155609,155.050623 C59.8180943,143.710146 45.6668307,122.980446 46.2768909,88.2750375 L46.3020182,87.13838 C47.3170754,48.9736101 63.6531694,20.11003 90.421829,7.55715439 L91.199,7.199 Z" id="椭圆形" fill="#A4C3FC" fill-rule="nonzero" transform="translate(65.135792, 81.075533) rotate(13.000000) translate(-65.135792, -81.075533) "></path>
                        <g id="编组-100" transform="translate(40.855237, 14.398782)" fill="#A4C3FC">
                            <path d="M83.2851735,2.50306626 C111.915034,11.3988738 126.884875,47.6934661 116.916299,86.1739178 C106.952996,124.634015 75.6729699,151.399098 45.5794981,148.243053 C72.0041933,150.642 100.393331,123.283003 110.356296,84.8242115 C120.288939,46.4824684 108.334171,10.9016682 83.558052,2.59288582 Z M3.20957842,62.7790082 C13.6649918,22.4192786 47.5948955,-5.06161779 78.9941394,1.39870813 C79.087199,1.41785493 79.1801319,1.43727839 79.2729378,1.45697773 L79.5408063,1.51118365 C52.0664679,-4.14160152 21.3183288,23.993936 10.8629154,64.3536655 C0.442055832,104.580011 14.1131396,141.767327 41.4064555,147.609612 L41.1317381,147.554218 C9.7324942,141.093892 -7.245835,103.138738 3.20957842,62.7790082 Z" id="形状结合"></path>
                        </g>
                        <ellipse id="椭圆形" fill="#EEF4FF" opacity="0.735677083" transform="translate(101.464843, 88.987720) rotate(13.000000) translate(-101.464843, -88.987720) " cx="101.464843" cy="88.9877203" rx="50.8145283" ry="75.4733963"></ellipse>
                        <g id="编组-115" transform="translate(0.558013, 40.785951)">
                            <mask id="mask-12" fill="white">
                                <use xlink:href="#path-11"></use>
                            </mask>
                            <use id="路径-345" fill="#B5CFFF" xlink:href="#path-11"></use>
                            <path d="M58.513364,146.012444 L73.7349856,150.716307 C74.7891554,151.043887 75.3803368,152.162683 75.0569844,153.218157 L24.3603528,317.776899 C24.0366013,318.827781 22.9252012,319.420186 21.8722886,319.103104 L4.89233685,313.989624 C3.83468594,313.671114 3.23549347,312.555516 3.55400301,311.497865 C3.55722895,311.487153 3.56054471,311.476468 3.56394995,311.465811 L56.0177667,147.314519 C56.3517049,146.269478 57.4651736,145.688527 58.513364,146.012444 Z" id="路径-345" fill="#89B3FF" mask="url(#mask-12)"></path>
                            <g id="编组-116" transform="translate(140.247890, 22.741513) rotate(-7.000000) translate(-140.247890, -22.741513) translate(136.747890, 0.741513)">
                                <path d="M1.90909904,-2.27373675e-13 C7.07055737,11.0768229 7.65682039,22.1806641 3.6678881,33.3115234" id="路径-352" stroke="#FFFFFF" stroke-width="4" stroke-linecap="round"></path>
                                <circle id="椭圆形" fill="#FFFFFF" cx="2" cy="41.0483526" r="2"></circle>
                            </g>
                        </g>
                    </g>
                    <g id="编组-134" transform="translate(42.000000, 0.000000)">
                        <path d="M0.392691505,39.9736324 L52,39.9736324 L52,23.8962926 L37.3742828,9.83203125 C21.6896871,9.57291667 11.6049397,13.1640625 7.12004041,20.6054688 C2.63514114,28.046875 0.392691505,34.5029296 0.392691505,39.9736324 Z" id="路径-351" fill="#A4C3FC"></path>
                        <mask id="mask-14" fill="white">
                            <use xlink:href="#path-13"></use>
                        </mask>
                        <use id="路径-309" fill="#DDE9FF" xlink:href="#path-13"></use>
                        <path d="M78.517936,480.238951 C109.860665,481.097906 124.794421,462.135472 123.319204,423.351651 L306.913525,393.309487 L332.384869,388.92414 L332.384869,458.507235 L72.3930114,492.427694 L78.517936,480.238951 Z" id="路径-310" fill="#A4C3FC" mask="url(#mask-14)"></path>
                    </g>
                    <g id="编组-77" transform="translate(42.392692, 0.000000)"></g>
                    <g id="编组-93" transform="translate(118.000000, 257.823109)">
                        <path d="M1.78781356,24.6420619 L211.790342,2.23576037 C212.888677,2.11857303 213.874053,2.91395079 213.99124,4.0122863 C213.99868,4.08201087 214.002447,4.15207842 214.002527,4.22219869 L214.126459,113.218812 C214.127594,114.217475 213.391876,115.063924 212.402791,115.201904 L2.27633087,144.515257 C1.18235511,144.667871 0.171794995,143.904746 0.0191816712,142.81077 C0.00640925797,142.719214 4.554102e-16,142.626882 0,142.534439 L0,26.6307743 C2.13508484e-15,25.6083402 0.771149953,24.7505352 1.78781356,24.6420619 Z" id="矩形" fill="#A4C3FC"></path>
                        <path d="M3.78781356,22.6420619 L213.790342,0.235760369 C214.888677,0.118573033 215.874053,0.913950786 215.99124,2.0122863 C215.99868,2.08201087 216.002447,2.15207842 216.002527,2.22219869 L216.126459,111.218812 C216.127594,112.217475 215.391876,113.063924 214.402791,113.201904 L4.27633087,142.515257 C3.18235511,142.667871 2.171795,141.904746 2.01918167,140.81077 C2.00640926,140.719214 2,140.626882 2,140.534439 L2,24.6307743 C2,23.6083402 2.77114995,22.7505352 3.78781356,22.6420619 Z" id="矩形" fill="#FFFFFF"></path>
                        <polygon id="矩形" fill="#DDE9FF" points="39.5351562 78.5029297 52.6333452 76.7324219 52 118.732422 39 120.50293"></polygon>
                        <polygon id="矩形" fill="#DDE9FF" points="65.7315341 54.9619141 78.829723 53.1914063 78 115.191406 65 116.961914"></polygon>
                        <polygon id="矩形" fill="#DDE9FF" points="91.9279119 71.4208984 105.026101 69.6503906 104 111.650391 91 113.420898"></polygon>
                        <polygon id="矩形" fill="#DDE9FF" points="118.12429 38.8798828 131.222479 37.109375 130 108.109375 117 109.879883"></polygon>
                        <polygon id="矩形" fill="#DDE9FF" points="144.320668 45.3388672 157.418857 43.5683594 156 104.568359 143 106.338867"></polygon>
                        <polygon id="矩形" fill="#DDE9FF" points="170.517045 28.7978516 183.615234 27.0273438 182 101.027344 169 102.797852"></polygon>
                        <polygon id="路径-268" fill="#A4C3FC" fill-rule="nonzero" points="20.7324219 28.7539063 20.732 123.286 204.009803 98.0046899 204.146447 98.9953101 19.7324219 124.433079 19.7324219 28.7539063"></polygon>
                        <path d="M185.745769,21.2545009 C186.157497,20.8863994 186.789674,20.9217656 187.157775,21.3334934 C187.497561,21.7135498 187.493564,22.2814442 187.167103,22.6560854 L187.078783,22.7454991 L160.045525,46.9143344 C155.410275,51.0584364 149.048112,52.666851 143.013642,51.2408986 L142.620575,51.1435946 L136.187803,49.4784354 C129.391213,47.7190999 122.226252,50.3200979 118.136694,55.9956759 L117.924312,56.2972225 L111.212855,66.0477316 C105.561061,74.2587464 94.4203417,76.4656828 86.077095,71.0894615 L85.7803253,70.8942268 L83.385126,69.2858443 C76.9157093,64.9416144 68.3379681,65.5593205 62.5607154,70.7405207 L62.2788677,70.9990113 L50.2088117,82.3186362 C49.1404847,83.3205421 47.9603447,84.1951379 46.6921389,84.9253472 L46.2124801,85.1923741 L32.4737348,92.582816 C31.9873556,92.8444525 31.380969,92.6622625 31.1193325,92.1758833 C30.8763843,91.7242454 31.0161232,91.1691318 31.4267479,90.8826533 L31.5262652,90.8214809 L45.2650104,83.4310391 C46.4190878,82.8102297 47.4970254,82.0583225 48.4775757,81.1905963 L48.8406755,80.8597998 L60.9107315,69.540175 C67.2698768,63.5763967 76.855321,62.7158192 84.1643745,67.4050887 L84.5000791,67.6254589 L86.8952784,69.2338414 C94.2627635,74.1811265 104.205419,72.3689097 109.364264,65.199539 L109.565401,64.9137583 L116.276858,55.1632492 C120.730788,48.6925111 128.697395,45.6405833 136.314673,47.4493699 L136.688995,47.5422519 L143.121767,49.2074111 C148.499431,50.5994494 154.20927,49.2748992 158.421115,45.6779663 L158.712511,45.4233361 L185.745769,21.2545009 Z" id="路径-269" fill="#FFBB3C" fill-rule="nonzero"></path>
                        <path d="M19.8581606,28.4223516 C20.0386365,28.2186291 20.3427237,28.2003274 20.5456911,28.3640172 L20.616625,28.433925 L25.7138385,34.5541756 C25.8905592,34.7663651 25.8618061,35.0816392 25.6496166,35.2583599 C25.4610037,35.415445 25.1909413,35.4101804 25.0091393,35.2580437 L24.9454323,35.194138 L20.22,29.52 L15.1848081,35.2057115 C15.0220414,35.3894438 14.7542736,35.4249659 14.5516079,35.3019856 L14.4789922,35.2484181 C14.2952599,35.0856513 14.2597378,34.8178835 14.3827181,34.6152179 L14.4362856,34.5426021 L19.8581606,28.4223516 Z" id="路径-296" fill="#A4C3FC" fill-rule="nonzero"></path>
                        <path d="M197.455191,93.9154504 C197.583537,93.7062191 197.841052,93.6246866 198.062011,93.7105609 L198.142834,93.7506885 L204.908613,97.9009458 C205.136187,98.0405436 205.209486,98.3292219 205.091542,98.5566524 L205.038277,98.6386571 L199.993889,104.971965 C199.821847,105.187966 199.507277,105.223602 199.291276,105.05156 C199.099275,104.898634 199.049785,104.633093 199.161988,104.424268 L199.211681,104.348947 L203.903,98.458 L197.619952,94.6030939 C197.410721,94.4747474 197.329189,94.2172326 197.415063,93.996273 L197.455191,93.9154504 Z" id="路径-297" fill="#A4C3FC" fill-rule="nonzero"></path>
                    </g>
                    <path d="M7.48889564,180.043708 L205.488896,167.36798 C209.898147,167.085705 213.701381,170.43128 213.983657,174.840532 C213.994549,175.010682 214,175.181138 214,175.351636 L214,239.049535 C214,243.201698 210.823388,246.663692 206.686543,247.020022 L8.68654333,264.074887 C4.28456508,264.454055 0.40868071,261.192922 0.0295132987,256.790944 C0.00984684789,256.562625 1.39734287e-15,256.333566 0,256.104401 L0,188.027365 C3.03593231e-15,183.807525 3.27767635,180.313306 7.48889564,180.043708 Z" id="矩形" fill="#FFEDC9"></path>
                    <path d="M11.4888956,178.043708 L209.488896,165.36798 C213.898147,165.085705 217.701381,168.43128 217.983657,172.840532 C217.994549,173.010682 218,173.181138 218,173.351636 L218,237.049535 C218,241.201698 214.823388,244.663692 210.686543,245.020022 L12.6865433,262.074887 C8.28456508,262.454055 4.40868071,259.192922 4.0295133,254.790944 C4.00984685,254.562625 4,254.333566 4,254.104401 L4,186.027365 C4,181.807525 7.27767635,178.313306 11.4888956,178.043708 Z" id="矩形" fill="#C9DCFF"></path>
                    <g id="编组-91" transform="translate(24.000000, 186.823109)">
                        <path d="M42.4775285,53.2152145 L7.43631147,55.9772215 C3.35790019,56.2986614 0.161413679,53.1801083 0.312174656,49.0267562 L1.44198246,17.9013972 C1.59274344,13.7480451 5.03462132,10.1062496 9.11302994,9.78478551 L11.0597644,9.63134202 C11.9211943,9.56344328 12.5914254,10.2173335 12.5595821,11.0945928 C12.5277388,11.9718521 11.8060547,12.7354544 10.9446247,12.8033531 L8.99789029,12.9567966 C6.6374748,13.1428469 4.6440118,15.2520979 4.55675754,17.6558876 L3.42694974,48.7812466 C3.33969547,51.1850363 5.19103296,52.9912364 7.55144845,52.8051862 L42.5926681,50.0432034 C44.9530836,49.8571531 46.9465466,47.7479021 47.0338009,45.3441124 L48.1636087,14.2187534 C48.2508629,11.8149637 46.3995254,10.0087636 44.0391099,10.1948138 L42.1021092,10.3474901 C41.2406792,10.4153888 40.5704482,9.76149862 40.6022915,8.8842393 C40.6341348,8.00697997 41.3558189,7.24337769 42.2172488,7.17547895 L44.1542469,7.02277851 C48.2326582,6.70133856 51.4291447,9.81989175 51.2783837,13.9732438 L50.1485759,45.0986028 C49.997815,49.2519549 46.5559371,52.8937504 42.4775285,53.2152145 Z" id="路径" fill="#FFFFFF" fill-rule="nonzero"></path>
                        <path d="M29.9213561,11.5196656 L22.514112,12.1090967 C21.6564305,12.177341 20.98053,11.4932886 21.0121103,10.5889751 C21.0436906,9.68466164 21.7712681,8.88892844 22.628949,8.82067911 L30.0361932,8.23124807 C30.8938747,8.16300371 31.5697752,8.84705618 31.5381949,9.75136964 C31.5066145,10.6556831 30.7790371,11.4514163 29.9213561,11.5196656 Z M16.1070097,18.1527128 C15.2493282,18.2209571 14.5734277,17.5369047 14.605008,16.6325912 L14.9638755,6.3563019 C14.9954559,5.45198844 15.7230333,4.65625524 16.5807137,4.58800093 C17.4383953,4.51975658 18.1142958,5.20380904 18.0827154,6.1081225 L17.7238479,16.3844118 C17.6922675,17.2887253 16.9646901,18.0844585 16.1070097,18.1527128 Z M36.0042335,16.5694058 C35.146552,16.6376502 34.4706515,15.9535977 34.5022318,15.0492842 L34.8610993,4.77299492 C34.8926797,3.86868146 35.6202571,3.07294826 36.4779375,3.00469395 C37.3356191,2.9364496 38.0115196,3.62050206 37.9799392,4.52481552 L37.6210717,14.8011048 C37.5894913,15.7054183 36.8619139,16.5011515 36.0042335,16.5694058 Z M2.91333135,23.7115874 L48.0390459,20.1207418 L47.9242083,23.4091544 L2.79849374,27 L2.91333135,23.7115874 Z" id="形状" fill="#FFFFFF" fill-rule="nonzero"></path>
                        <path d="M25.8097776,34.9926254 C27.1633981,34.8874883 28.3036617,33.686291 28.3566259,32.3096606 C28.40959,30.9330302 27.3551983,29.9022686 26.0015743,30.0073746 C24.6479538,30.1125117 23.5076902,31.313709 23.4547261,32.6903394 C23.4017619,34.0669698 24.4561536,35.0977314 25.8097776,34.9926254 Z" id="路径" fill="#FFFFFF" fill-rule="nonzero"></path>
                        <path d="M25.024142,45.9926254 C26.3777625,45.8874883 27.5180261,44.686291 27.5709903,43.3096606 C27.6239545,41.9330302 26.5695628,40.9022686 25.2159388,41.0073746 C23.8623183,41.1125117 22.7220547,42.313709 22.6690905,43.6903394 C22.6161263,45.0669698 23.6705181,46.0977314 25.024142,45.9926254 Z" id="路径" fill="#FFFFFF" fill-rule="nonzero"></path>
                        <path d="M11.9201743,35.9926254 C13.2737949,35.8874883 14.4140585,34.686291 14.4670226,33.3096606 C14.5199868,31.9330302 13.4655951,30.9022686 12.1119711,31.0073746 C10.7583506,31.1125117 9.61808701,32.313709 9.56512284,33.6903394 C9.51215867,35.0669698 10.5665504,36.0977314 11.9201743,35.9926254 Z" id="路径" fill="#FFFFFF" fill-rule="nonzero"></path>
                        <path d="M12.1345388,46.9926254 C13.4881593,46.8874883 14.6284229,45.686291 14.6813871,44.3096606 C14.7343512,42.9330302 13.6799595,41.9022686 12.3263356,42.0073746 C10.972715,42.1125117 9.83245145,43.313709 9.77948728,44.6903394 C9.72652312,46.0669698 10.7809148,47.0977314 12.1345388,46.9926254 Z" id="路径" fill="#FFFFFF" fill-rule="nonzero"></path>
                        <path d="M38.6993808,33.9926254 C40.0530013,33.8874883 41.1932649,32.686291 41.2462291,31.3096606 C41.2991933,29.9330302 40.2448015,28.9022686 38.8911776,29.0073746 C37.5375571,29.1125117 36.3972935,30.313709 36.3443293,31.6903394 C36.2913651,33.0669698 37.3457568,34.0977314 38.6993808,33.9926254 Z" id="路径" fill="#FFFFFF" fill-rule="nonzero"></path>
                        <path d="M38.9137453,44.9926254 C40.2673658,44.8874883 41.4076294,43.686291 41.4605935,42.3096606 C41.5135577,40.9330302 40.459166,39.9022686 39.105542,40.0073746 C37.7519215,40.1125117 36.6116579,41.313709 36.5586937,42.6903394 C36.5057296,44.0669698 37.5601213,45.0977314 38.9137453,44.9926254 Z" id="路径" fill="#FFFFFF" fill-rule="nonzero"></path>
                        <path d="M78.0177938,7.94617554 L178.670052,0.184563662 C180.088132,0.0752193713 181.065144,1.14746658 180.852271,2.57950298 L180.698094,3.61667549 C180.48522,5.04871188 179.163072,6.29825442 177.744993,6.40759871 L77.0927339,14.1692187 C75.6746546,14.278563 74.6976423,13.2063158 74.9105159,11.7742794 L75.0646925,10.7371069 C75.277566,9.30507051 76.5997145,8.05552798 78.0177938,7.94617554 Z" id="矩形备份" fill="#FFFFFF"></path>
                        <path d="M75.1364006,22.7692843 L175.788659,15.0076725 C177.206739,14.8983282 178.183751,15.9705754 177.970877,17.4026118 L177.816701,18.4397843 C177.603827,19.8718207 176.281679,21.1213632 174.863599,21.2307075 L74.2113407,28.9923275 C72.7932614,29.1016718 71.8162491,28.0294246 72.0291227,26.5973882 L72.1832993,25.5602157 C72.3961728,24.1281793 73.7183213,22.8786368 75.1364006,22.7692843 Z" id="矩形备份" fill="#FFFFFF"></path>
                        <path d="M73.1285548,39.5677396 L142.794191,34.0079206 C144.208723,33.8950394 145.183291,35.0019706 144.97095,36.480329 L144.817159,37.5510509 C144.604818,39.0294093 143.285977,40.3193708 141.871445,40.432252 L72.205809,45.9920794 C70.7912771,46.1049606 69.8167088,44.9980294 70.0290498,43.519671 L70.1828408,42.4489491 C70.3951818,40.9705907 71.7140229,39.6806292 73.1285548,39.5677396 Z" id="矩形备份" fill="#FFBB3C"></path>
                    </g>
                    <g id="编组-114" transform="translate(114.881393, 73.000000)">
                        <mask id="mask-16" fill="white">
                            <use xlink:href="#path-15"></use>
                        </mask>
                        <use id="矩形" fill="#A4C3FC" xlink:href="#path-15"></use>
                        <g id="编组-101" mask="url(#mask-16)">
                            <g transform="translate(1.881393, -2.000000)">
                                <mask id="mask-18" fill="white">
                                    <use xlink:href="#path-17"></use>
                                </mask>
                                <use id="矩形" stroke="none" fill="#FFFFFF" fill-rule="evenodd" xlink:href="#path-17"></use>
                                <circle id="椭圆形" stroke="none" fill="#FFE17F" fill-rule="evenodd" mask="url(#mask-18)" cx="137" cy="8" r="23"></circle>
                                <polygon id="路径-5" stroke="none" fill="#D9E4FF" fill-rule="evenodd" mask="url(#mask-18)" points="79 77.5124642 107.77452 37 166 99 79 99"></polygon>
                                <polygon id="路径-5" stroke="none" fill="#BCD1FF" fill-rule="evenodd" mask="url(#mask-18)" points="-8 86.2835146 37.471238 31 125 118 -8 118"></polygon>
                            </g>
                        </g>
                    </g>
                    <path d="M279.787196,46.6822124 L355.787196,43.0987433 C356.89054,43.0467196 357.82715,43.8989829 357.879174,45.0023266 C357.880653,45.0337039 357.881393,45.0651117 357.881393,45.0965238 L357.881393,102.320007 C357.881393,103.387954 357.042352,104.267489 355.97559,104.317788 L279.97559,107.901257 C278.872247,107.95328 277.935636,107.101017 277.883613,105.997673 C277.882133,105.966296 277.881393,105.934888 277.881393,105.903476 L277.881393,48.6799929 C277.881393,47.6120463 278.720435,46.7325111 279.787196,46.6822124 Z" id="矩形" fill="#FFEDC9"></path>
                    <path d="M282.787196,44.6822124 L358.787196,41.0987433 C359.89054,41.0467196 360.82715,41.8989829 360.879174,43.0023266 C360.880653,43.0337039 360.881393,43.0651117 360.881393,43.0965238 L360.881393,100.320007 C360.881393,101.387954 360.042352,102.267489 358.97559,102.317788 L282.97559,105.901257 C281.872247,105.95328 280.935636,105.101017 280.883613,103.997673 C280.882133,103.966296 280.881393,103.934888 280.881393,103.903476 L280.881393,46.6799929 C280.881393,45.6120463 281.720435,44.7325111 282.787196,44.6822124 Z" id="矩形" fill="#C9DCFF"></path>
                    <g id="gouwu" transform="translate(301.881393, 49.000000)" fill="#FFFFFF" fill-rule="nonzero">
                        <path d="M1.64558301,48.4789376 C1.3024457,48.5134402 0.975986598,48.3998094 0.745919687,48.1657902 C0.515314437,47.9319578 0.402555764,47.5988367 0.435298027,47.2481256 L3.51987667,13.3512441 C3.57833606,12.702032 4.11111045,12.1552548 4.74672538,12.0920751 L33.8160266,9.20441506 C34.4590936,9.1405338 34.9893595,9.59284177 35.0286481,10.2406368 L37.1205984,43.6242362 C37.1425805,43.9662087 37.0220291,44.3170893 36.788032,44.5922135 C36.553164,44.868343 36.2301041,45.0433655 35.8904336,45.0771459 M34.6020819,42.7167435 L32.6652864,11.807029 L5.86206199,14.4696192 L3.00643052,45.8554059 M26.7700192,7.73245283 C26.8124808,1.8546052 21.3856254,1.10778132 19.291055,1.31585265 C17.1964846,1.52392399 11.7516945,3.35072008 11.7092329,9.22856771 L9.25959481,9.47191091 C9.31076955,2.38792679 15.2977176,-0.776753239 19.3091054,-1.17523821 C23.320822,-1.57375583 29.2708864,0.405175762 29.2197121,7.48910418 M10.5086628,14.9677715 C11.977262,14.8218831 13.1590933,15.9136489 13.1483112,17.4061836 C13.1375291,18.8987183 11.9382664,20.2275191 10.4696124,20.3734129 C9.00095832,20.5193067 7.81934988,19.4270179 7.83013156,17.9345389 C7.84091404,16.4419485 9.04006349,15.1136598 10.5086628,14.9677715 Z M27.6397586,13.1634994 C29.1080839,13.0176382 30.2898055,14.1094148 30.2790234,15.6019496 C30.2682414,17.0944843 29.0690335,18.4232796 27.6007082,18.5691408 C26.1319445,18.7150455 24.9502813,17.6227621 24.961063,16.1302831 C24.9718455,14.6376926 26.1723648,13.3092679 27.6397586,13.1634994 Z" id="形状"></path>
                    </g>
                    <rect id="矩形" fill="#A4C3FC" transform="translate(286.656173, 172.628015) rotate(-4.000000) translate(-286.656173, -172.628015) " x="239.156173" y="169.128015" width="95" height="7" rx="3.5"></rect>
                    <rect id="矩形" fill="#A4C3FC" transform="translate(286.656173, 186.628015) rotate(-4.000000) translate(-286.656173, -186.628015) " x="239.156173" y="183.128015" width="95" height="7" rx="3.5"></rect>
                    <rect id="矩形" fill="#A4C3FC" transform="translate(286.656173, 200.628015) rotate(-4.000000) translate(-286.656173, -200.628015) " x="239.156173" y="197.128015" width="95" height="7" rx="3.5"></rect>
                    <path d="M242.648134,211.808338 L310.645703,211.447791 C312.568451,211.437596 314.13541,212.988026 314.145605,214.910773 C314.145638,214.916926 314.145654,214.923079 314.145654,214.929233 L314.145654,214.947742 C314.145654,216.873495 312.589938,218.437482 310.664212,218.447693 L242.666642,218.80824 C240.743895,218.818435 239.176936,217.268005 239.16674,215.345258 C239.166708,215.339105 239.166692,215.332952 239.166692,215.326798 L239.166692,215.308289 C239.166692,213.382536 240.722407,211.818549 242.648134,211.808338 Z" id="矩形" fill="#A4C3FC" transform="translate(276.656173, 215.128015) rotate(-4.000000) translate(-276.656173, -215.128015) "></path>
                    <rect id="矩形" fill="#FFD585" transform="translate(287.656173, 171.628015) rotate(-4.000000) translate(-287.656173, -171.628015) " x="240.156173" y="168.128015" width="95" height="7" rx="3.5"></rect>
                    <rect id="矩形" fill="#FFD585" transform="translate(287.656173, 185.628015) rotate(-4.000000) translate(-287.656173, -185.628015) " x="240.156173" y="182.128015" width="95" height="7" rx="3.5"></rect>
                    <rect id="矩形" fill="#FFD585" transform="translate(287.656173, 199.628015) rotate(-4.000000) translate(-287.656173, -199.628015) " x="240.156173" y="196.128015" width="95" height="7" rx="3.5"></rect>
                    <path d="M243.648134,210.808338 L311.645703,210.447791 C313.568451,210.437596 315.13541,211.988026 315.145605,213.910773 C315.145638,213.916926 315.145654,213.923079 315.145654,213.929233 L315.145654,213.947742 C315.145654,215.873495 313.589938,217.437482 311.664212,217.447693 L243.666642,217.80824 C241.743895,217.818435 240.176936,216.268005 240.16674,214.345258 C240.166708,214.339105 240.166692,214.332952 240.166692,214.326798 L240.166692,214.308289 C240.166692,212.382536 241.722407,210.818549 243.648134,210.808338 Z" id="矩形" fill="#FFBB3C" transform="translate(277.656173, 214.128015) rotate(-4.000000) translate(-277.656173, -214.128015) "></path>
                </g>
            </g>
        </g>
    </g>
</svg>