<?xml version="1.0" standalone="no"?><!DOCTYPE svg PUBLIC "-//W3C//DTD SVG 1.1//EN" "http://www.w3.org/Graphics/SVG/1.1/DTD/svg11.dtd"><svg t="1678430502972" class="icon" viewBox="0 0 1024 1024" version="1.1" xmlns="http://www.w3.org/2000/svg" p-id="32379" xmlns:xlink="http://www.w3.org/1999/xlink" width="200" height="200"><path d="M123.992 587.768l58.325 0 0 300.079c0 59.05 41.387 79.99 76.825 79.99 2.285 0 4.098-0.09 4.9-0.17l160.69 0L424.732 649.188c0-5.42 4.22-9.34 4.875-9.71l165.492-0.19c1.715 1.04 4.73 7.71 4.82 10.65 0.28 9.12 0.06 225.499-0.015 291.579l-0.015 26.15 159.56 0c28.19 0 52.08-13.28 69.09-38.45 11.07-16.35 15.34-32.21 16.08-35.22l0.56-2.26 1.12-305.939 56.38 0c19.955 0 36.325-8.88 46.09-24.97 7.115-11.73 10.57-27.03 10.57-46.742l0-10.71-7.6-7.612C912.588 456.469 535.119 77.67 533.589 76.16c-6.105-6.02-15.04-9.072-26.55-9.072-10.422 0-18.762 3.04-24.87 9.097L65.312 501.529l0 10.577c0 19.502 6.532 38.272 18.39 52.882C95.292 579.258 110.347 587.768 123.992 587.768z" fill="#272636" p-id="32380"></path></svg>