<?xml version="1.0" encoding="UTF-8"?>
<svg width="681px" height="576px" viewBox="0 0 681 576" version="1.1" xmlns="http://www.w3.org/2000/svg" xmlns:xlink="http://www.w3.org/1999/xlink">
    <!-- Generator: Sketch 60.1 (88133) - https://sketch.com -->
    <title>编组 140</title>
    <desc>Created with Sketch.</desc>
    <defs>
        <path d="M627.374303,225.059402 C598.074897,246.848241 556.522489,263.737244 588.540267,320.255697 C620.558046,376.77415 499.431756,422.433928 431.288473,422.433928 C363.14519,422.433928 227.205311,397.366585 123.287643,340.921313 C19.3699747,284.476041 -20.5680369,243.380455 10.0149649,131.482749 C40.5979666,19.5850424 188.542943,20.5814505 248.669376,71.0197024 C308.79581,121.457954 369.668513,80.7230749 414.484499,45.5309391 C459.300485,10.3388033 518.288665,-15.1763411 590.093425,10.3388033 C661.898185,35.8539477 682.783038,91.0800055 675.637055,138.329037 C668.491072,185.578069 656.67371,203.270563 627.374303,225.059402 Z" id="path-1"></path>
        <path d="M2.27682454,20.545191 L88.4263328,0.568527772 C89.5023523,0.319016442 90.5769073,0.989033664 90.8264186,2.06505312 C90.8607695,2.21319153 90.878113,2.36476438 90.878113,2.51683335 L90.878113,73.4830824 C90.878113,74.4633998 90.1675625,75.2992163 89.200027,75.4570053 L3.05051875,89.5065567 C1.96035126,89.6843449 0.932470107,88.9447154 0.754681928,87.8545479 C0.737325584,87.7481217 0.728604772,87.6404661 0.728604772,87.5326339 L0.728604772,22.4934966 C0.728604772,21.5629758 1.3703551,20.7553865 2.27682454,20.545191 Z" id="path-3"></path>
        <path d="M6.7012838,7.63524148 L74.7048642,0.105843044 C77.1485837,-0.164727091 79.0738222,1.65345861 79.0050046,4.16687446 L77.7599459,53.6400006 C77.6911284,56.1534164 75.6543146,58.410283 73.2105951,58.6808531 L5.20701467,62.2102516 C2.76329515,62.4808217 0.838056727,60.662636 0.9068743,58.1492201 L2.15193295,12.676094 C2.22075052,10.1626782 4.25756428,7.90581161 6.7012838,7.63524148 Z" id="path-5"></path>
        <path d="M97.364067,19.3531616 C101.136808,18.915599 104.281127,15.2742129 104.387101,11.2198982 C104.493074,7.1655835 101.520572,4.23362665 97.7478313,4.67118929 C93.9750904,5.10875193 90.8307711,8.75013799 90.7247974,12.8044527 C90.6188238,16.8587674 93.5913261,19.7907242 97.364067,19.3531616 Z" id="path-7"></path>
        <path d="M75.5,181.897044 C116.411671,181.897044 149.723117,142.67613 150.964298,93.7281658 C150.9719,93.424847 124.185967,92.4811398 70.6064967,90.8970441 C71.8524081,30.276106 72.2673926,-0.022908698 71.8514502,1.42108547e-14 C31.8483985,2.29556938 -7.10542736e-14,42.1134466 -7.10542736e-14,90.8970441 C-7.10542736e-14,141.154956 33.8025014,181.897044 75.5,181.897044 Z" id="path-9"></path>
        <path d="M1.4993632,13.1834106 L9.27505978,69.8097006 C10.5094036,76.9870588 13.7412609,80.0138527 18.9706317,78.8900824 C24.1431004,77.7785401 74.5737337,65.0180535 170.262532,40.6086227 L170.262528,40.6086093 C171.867964,40.1990758 172.837434,38.5656208 172.4279,36.9601853 C172.403365,36.8640011 172.37407,36.769094 172.340125,36.6758141 C169.582665,29.0984288 166.865979,23.7064992 164.190069,20.5000253 C159.645042,15.0538371 149.545468,11.6247016 134.930973,12.2646579 C120.316478,12.9046142 114.924599,18.1311667 96.6862221,14.7972715 C84.5273039,12.5746747 72.2733382,7.86546469 59.9243249,0.669641547 L1.4993632,13.1834106 Z" id="path-11"></path>
        <path d="M5.49499607,9.95053583 C-0.398803263,13.6020605 0.227679362,15.9143905 7.37444395,16.8875257 C18.0945908,18.3472286 42.6108443,14.9788331 54.5035229,8.67256697 C62.4319753,4.46838956 63.2856869,2.06195314 57.0646578,1.4532577 C48.942532,0.863027215 39.4444593,1.52112449 28.5704395,3.42754952 C17.6964197,5.33397455 10.0046052,7.50830332 5.49499607,9.95053583 Z" id="path-13"></path>
        <path d="M1.4993632,13.1834106 L9.27505978,69.8097006 C10.5094036,76.9870588 13.7412609,80.0138527 18.9706317,78.8900824 C24.1431004,77.7785401 74.5737337,65.0180535 170.262532,40.6086227 L170.262528,40.6086093 C171.867964,40.1990758 172.837434,38.5656208 172.4279,36.9601853 C172.403365,36.8640011 172.37407,36.769094 172.340125,36.6758141 C169.582665,29.0984288 166.865979,23.7064992 164.190069,20.5000253 C159.645042,15.0538371 149.545468,11.6247016 134.930973,12.2646579 C120.316478,12.9046142 114.924599,18.1311667 96.6862221,14.7972715 C84.5273039,12.5746747 72.2733382,7.86546469 59.9243249,0.669641547 L1.4993632,13.1834106 Z" id="path-15"></path>
        <path d="M5.49499607,9.95053583 C-0.398803263,13.6020605 0.227679362,15.9143905 7.37444395,16.8875257 C18.0945908,18.3472286 42.6108443,14.9788331 54.5035229,8.67256697 C62.4319753,4.46838956 63.2856869,2.06195314 57.0646578,1.4532577 C48.942532,0.863027215 39.4444593,1.52112449 28.5704395,3.42754952 C17.6964197,5.33397455 10.0046052,7.50830332 5.49499607,9.95053583 Z" id="path-17"></path>
        <path d="M13.4644252,0 L0.495396205,19.9957933 C1.40286575,21.1322771 2.06303459,21.9348901 2.47590274,22.403632 C3.47256531,23.5351738 4.37463512,24.4054957 5.01750401,25.0661058 C12.6114947,32.8696669 20.6380665,39.1545518 29.0284308,43.7801983 C30.3883809,44.5299451 31.7477385,45.264648 33.1255391,45.9321665 C34.6023098,46.647634 36.114727,47.1988925 37.6109852,47.8203125 L52.943621,23.1328125 L13.4644252,0 Z" id="path-19"></path>
        <path d="M53.9951481,23.114641 C51.249203,25.7803292 48.5944457,27.9891915 46.0308761,29.741228 C35.6223392,36.8547997 23.2976741,41.4382145 12.1734678,44.0163217 C4.05782259,29.4721286 6.39488462e-14,22.200032 6.39488462e-14,22.200032 L40.1336624,2.48689958e-14 L53.9951481,23.114641 Z" id="path-21"></path>
        <path d="M6.81762695,0 C18.4647624,6.23371167 27.4031576,13.5043485 33.6328125,21.8119104 C39.8624674,30.1194723 56.8150015,56.1591017 84.4904148,99.9307985 L26.8737793,131.06847 L0,87.8179909 L6.81762695,0 Z" id="path-23"></path>
        <path d="M0.180880043,2.49576823 C-1.02901395,28.4322786 3.83076444,47.938635 14.7602152,61.0148372 C31.1543913,80.6291406 59.5420866,84.7794206 93.0329425,72.8971289 L55.7250294,151.814538 L114.583665,186.555632 L156.954699,100.047435 C165.220541,77.2040538 165.220541,58.1238043 156.954699,42.8066862 C144.555936,19.8310091 114.939163,13.0461719 106.640157,13.0461719 C101.107487,13.0461719 87.465895,13.0461719 65.7153821,13.0461719 L65.7153821,8.52651283e-14 L0.180880043,2.49576823 Z" id="path-25"></path>
        <path d="M10.6652895,89.2125556 C22.8543175,91.4114521 30.6198166,90.4714651 33.961787,86.3925943 C37.3037573,82.3137236 53.0013018,63.9738774 81.0544204,31.3730556 C96.0440987,14.4169146 107.471573,4.76041877 115.336842,2.40356822 C127.134746,-1.13170761 132.848483,3.88574346 127.982182,10.3217662 C130.892591,12.6685688 131.217173,14.9387054 128.955928,17.132176 C130.544325,18.7450753 131.338524,20.1817332 131.338524,21.4421499 C131.338524,23.3327749 130.737637,25.1486431 125.316905,25.8115073 C126.297837,27.9967386 126.344697,29.5907477 125.457486,30.5935345 C124.12667,32.0977148 120.969206,32.1525767 119.38425,31.3730556 C117.799293,30.5935345 113.854513,27.2954912 110.804232,28.2456267 C108.29077,37.3904801 106.491956,43.1175184 105.40779,45.4267417 C103.781539,48.8905765 98.8839638,55.7425849 95.4453374,58.9896851 C92.0067111,62.2367853 85.1422108,63.5594993 81.4706991,69.8445011 C79.0230246,74.0345023 70.8181939,85.1215268 56.8562069,103.105575 C50.3684121,110.181753 45.7565538,114.620843 43.0206318,116.422845 C38.9167489,119.125848 28.6719195,121.766152 17.7976621,120.173047 C10.5481572,119.110977 4.61560316,117.526011 0,115.418149 L10.6652895,89.2125556 Z" id="path-27"></path>
        <path d="M0,28.9251224 C54.6775026,54.9566822 83.8033137,69.4111642 87.3774331,72.2885683 C92.7386123,76.6046746 103.192126,83.8462561 108.494703,97.3932429 C110.623105,100.355681 113.395323,100.130372 116.811358,96.7173175 C118.442347,100.967578 120.612233,102.882751 123.321016,102.462835 C127.38419,101.832961 127.804977,98.341538 127.804977,98.341538 C129.531824,101.988889 131.820021,103.319633 134.66957,102.33377 C138.943893,100.854975 136.180536,94.4859457 136.180536,94.4859457 C139.60664,95.7345848 142.238696,95.612488 144.076706,94.1196554 C146.83372,91.8804064 145.135771,85.9940083 143.523611,83.5623735 C141.911451,81.1307388 127.098732,64.2538121 109.918672,54.8611458 C98.4652989,48.5993682 65.8597934,30.3123196 12.1021555,0 L0,28.9251224 Z" id="path-29"></path>
        <path d="M26.0731573,-1.45661261e-13 C27.7545219,4.49500868 28.3149768,9.26642976 27.7545219,14.3142632 C26.9138396,21.8860135 21.5907349,25.406467 15.1363788,23.9893934 L14.8330715,31.1705458 C6.29511294,33.3665274 1.49830871,32.2682382 0.442658798,27.8756782 C2.95044299,26.1617025 4.20433509,24.1052698 4.20433509,21.7063802 C4.20433509,19.3074906 4.20433509,17.6479221 4.20433509,16.7276747 L-1.42108547e-14,9.6503635 L6.60417374,3.81914605 L26.0731573,-1.45661261e-13 Z" id="path-31"></path>
        <path d="M29.6978655,0.659207196 C18.5418822,5.00409423 11.2073011,13.1257932 7.69412199,25.024304 C2.42435338,42.8720703 0.519486841,84.5584149 1.47192011,86.849073 L69.8787194,84.4125633 L69.8787194,74.2156553 L72.8941545,76.5014717 L87.7667199,43.7541401 C74.7058701,34.9205317 66.6793967,27.4485081 63.6872996,21.3380694 C59.199154,12.1724114 48.9241672,0.659207196 44.5014155,0.659207196 C42.1519201,3.18044399 39.7268458,4.44106239 37.2261926,4.44106239 C34.7255393,4.44106239 32.216097,3.18044399 29.6978655,0.659207196 Z" id="path-33"></path>
    </defs>
    <g id="页面-1" stroke="none" stroke-width="1" fill="none" fill-rule="evenodd">
        <g id="画板" transform="translate(-1335.000000, -2375.000000)">
            <g id="编组-140" transform="translate(1325.332298, 2374.000000)">
                <g id="2">
                    <g id="编组-70" transform="translate(13.699515, 1.244303)">
                        <mask id="mask-2" fill="white">
                            <use xlink:href="#path-1"></use>
                        </mask>
                        <use id="路径-255" fill="#F3F7FF" xlink:href="#path-1"></use>
                        <rect id="矩形" fill="#D0DEFE" mask="url(#mask-2)" x="23.3004853" y="321.755697" width="631" height="162"></rect>
                        <rect id="矩形" fill="#C4D6FF" mask="url(#mask-2)" x="23.3004853" y="321.755697" width="631" height="19"></rect>
                    </g>
                    <g id="编组-69" transform="translate(244.000000, 63.000000) rotate(-16.000000) translate(-244.000000, -63.000000) translate(190.000000, 39.000000)">
                        <path d="M11.7739999,0.263164868 L106.292563,0.263164868 C106.819848,0.263164868 107.120597,0.68607161 106.964305,1.20775351 L96.7766055,35.2129448 C96.6203135,35.7346267 96.0661653,36.1575334 95.5388808,36.1575334 L34.2216784,36.1575334 L16.3191333,47.2631649 L13.9373344,36.1575334 L1.02031727,36.1575334 C0.493032811,36.1575334 0.192283979,35.7346267 0.348575951,35.2129448 L10.5362753,1.20775351 C10.6925673,0.68607161 11.2467155,0.263164868 11.7739999,0.263164868 Z" id="矩形" fill="#C9DCFF"></path>
                        <path d="M20.7535102,27.7593798 C26.2278589,27.7593798 31.9954338,23.2822273 33.6357493,17.7593798 C35.2760649,12.2365323 32.1679669,7.75937976 26.6936182,7.75937976 C21.2192695,7.75937976 15.4516945,12.2365323 13.811379,17.7593798 C12.1710635,23.2822273 15.2791615,27.7593798 20.7535102,27.7593798 Z" id="椭圆形" fill="#FFBB3C"></path>
                        <path d="M92.9084867,9.8756498 C93.4607403,9.86978621 93.9131837,10.3127228 93.9191048,10.8649765 C93.924492,11.3777834 93.5429611,11.8045295 93.0462637,11.8675716 L92.9297206,11.8755371 L46.6651038,12.3667549 C46.1128502,12.3726185 45.6604068,11.9296819 45.6544857,11.3774283 C45.6490984,10.8646213 46.0306294,10.4378753 46.5273268,10.3748332 L46.6438699,10.3668677 L92.9084867,9.8756498 Z" id="路径-257" fill="#FFFFFF" fill-rule="nonzero"></path>
                        <path d="M44.4536204,18.0620987 L90.501893,18.3253626 C91.0541688,18.32852 91.4993171,18.7787875 91.4961764,19.3310633 C91.4932278,19.8438907 91.1047775,20.2643481 90.6071167,20.319269 L90.490459,20.3253299 L44.4421863,20.062066 C43.8899106,20.0589086 43.4447623,19.608641 43.447903,19.0563653 C43.4508516,18.5435378 43.8393019,18.1230804 44.3369627,18.0681596 L44.4536204,18.0620987 Z" id="路径-258" fill="#FFFFFF" fill-rule="nonzero"></path>
                        <path d="M42.1394744,26.199122 L87.938213,27.3326146 C88.4903287,27.3462791 88.9268296,27.8049346 88.9134773,28.3570503 C88.9004765,28.8697291 88.5040968,29.2827197 88.0054812,29.3281621 L87.8887293,29.3320023 L42.0899907,28.1985097 C41.5378751,28.1848452 41.1013742,27.7261897 41.1147265,27.174074 C41.1277272,26.6613951 41.5241069,26.2484046 42.0227226,26.2029622 L42.1394744,26.199122 Z" id="路径-259" fill="#FFFFFF" fill-rule="nonzero"></path>
                        <path d="M32.1354764,12.0723519 C32.3365787,11.8831101 32.6530152,11.8927249 32.842257,12.0938272 C33.010472,12.2725848 33.0215656,12.5424707 32.8807136,12.733149 L32.8207817,12.8006078 L20.5235937,24.3725408 L15.4725834,16.6757978 C15.3210756,16.4449298 15.3854097,16.1349531 15.6162777,15.9834453 C15.8214936,15.8487717 16.0892153,15.8846399 16.2525842,16.0564192 L16.3086301,16.1271396 L20.706,22.828 L32.1354764,12.0723519 Z" id="路径-284" fill="#FFFFFF" fill-rule="nonzero"></path>
                    </g>
                    <g id="编组-69" transform="translate(134.000000, 124.000000) rotate(-16.000000) translate(-134.000000, -124.000000) translate(80.000000, 100.000000)">
                        <path d="M11.7739999,0.263164868 L106.292563,0.263164868 C106.819848,0.263164868 107.120597,0.68607161 106.964305,1.20775351 L96.7766055,35.2129448 C96.6203135,35.7346267 96.0661653,36.1575334 95.5388808,36.1575334 L34.2216784,36.1575334 L16.3191333,47.2631649 L13.9373344,36.1575334 L1.02031727,36.1575334 C0.493032811,36.1575334 0.192283979,35.7346267 0.348575951,35.2129448 L10.5362753,1.20775351 C10.6925673,0.68607161 11.2467155,0.263164868 11.7739999,0.263164868 Z" id="矩形" fill="#C9DCFF"></path>
                        <path d="M20.7535102,27.7593798 C26.2278589,27.7593798 31.9954338,23.2822273 33.6357493,17.7593798 C35.2760649,12.2365323 32.1679669,7.75937976 26.6936182,7.75937976 C21.2192695,7.75937976 15.4516945,12.2365323 13.811379,17.7593798 C12.1710635,23.2822273 15.2791615,27.7593798 20.7535102,27.7593798 Z" id="椭圆形" fill="#FFBB3C"></path>
                        <path d="M92.9084867,9.8756498 C93.4607403,9.86978621 93.9131837,10.3127228 93.9191048,10.8649765 C93.924492,11.3777834 93.5429611,11.8045295 93.0462637,11.8675716 L92.9297206,11.8755371 L46.6651038,12.3667549 C46.1128502,12.3726185 45.6604068,11.9296819 45.6544857,11.3774283 C45.6490984,10.8646213 46.0306294,10.4378753 46.5273268,10.3748332 L46.6438699,10.3668677 L92.9084867,9.8756498 Z" id="路径-257" fill="#FFFFFF" fill-rule="nonzero"></path>
                        <path d="M44.4536204,18.0620987 L90.501893,18.3253626 C91.0541688,18.32852 91.4993171,18.7787875 91.4961764,19.3310633 C91.4932278,19.8438907 91.1047775,20.2643481 90.6071167,20.319269 L90.490459,20.3253299 L44.4421863,20.062066 C43.8899106,20.0589086 43.4447623,19.608641 43.447903,19.0563653 C43.4508516,18.5435378 43.8393019,18.1230804 44.3369627,18.0681596 L44.4536204,18.0620987 Z" id="路径-258" fill="#FFFFFF" fill-rule="nonzero"></path>
                        <path d="M42.1394744,26.199122 L87.938213,27.3326146 C88.4903287,27.3462791 88.9268296,27.8049346 88.9134773,28.3570503 C88.9004765,28.8697291 88.5040968,29.2827197 88.0054812,29.3281621 L87.8887293,29.3320023 L42.0899907,28.1985097 C41.5378751,28.1848452 41.1013742,27.7261897 41.1147265,27.174074 C41.1277272,26.6613951 41.5241069,26.2484046 42.0227226,26.2029622 L42.1394744,26.199122 Z" id="路径-259" fill="#FFFFFF" fill-rule="nonzero"></path>
                    </g>
                    <g id="编组-69" transform="translate(98.000000, 116.000000) rotate(-16.000000) translate(-98.000000, -116.000000) translate(44.000000, 92.000000)">
                        <path d="M11.7739999,0.263164868 L106.292563,0.263164868 C106.819848,0.263164868 107.120597,0.68607161 106.964305,1.20775351 L96.7766055,35.2129448 C96.6203135,35.7346267 96.0661653,36.1575334 95.5388808,36.1575334 L34.2216784,36.1575334 L16.3191333,47.2631649 L13.9373344,36.1575334 L1.02031727,36.1575334 C0.493032811,36.1575334 0.192283979,35.7346267 0.348575951,35.2129448 L10.5362753,1.20775351 C10.6925673,0.68607161 11.2467155,0.263164868 11.7739999,0.263164868 Z" id="矩形" fill="#C9DCFF"></path>
                        <path d="M20.7535102,27.7593798 C26.2278589,27.7593798 31.9954338,23.2822273 33.6357493,17.7593798 C35.2760649,12.2365323 32.1679669,7.75937976 26.6936182,7.75937976 C21.2192695,7.75937976 15.4516945,12.2365323 13.811379,17.7593798 C12.1710635,23.2822273 15.2791615,27.7593798 20.7535102,27.7593798 Z" id="椭圆形" fill="#FFBB3C"></path>
                        <path d="M92.9084867,9.8756498 C93.4607403,9.86978621 93.9131837,10.3127228 93.9191048,10.8649765 C93.924492,11.3777834 93.5429611,11.8045295 93.0462637,11.8675716 L92.9297206,11.8755371 L46.6651038,12.3667549 C46.1128502,12.3726185 45.6604068,11.9296819 45.6544857,11.3774283 C45.6490984,10.8646213 46.0306294,10.4378753 46.5273268,10.3748332 L46.6438699,10.3668677 L92.9084867,9.8756498 Z" id="路径-257" fill="#FFFFFF" fill-rule="nonzero"></path>
                        <path d="M44.4536204,18.0620987 L90.501893,18.3253626 C91.0541688,18.32852 91.4993171,18.7787875 91.4961764,19.3310633 C91.4932278,19.8438907 91.1047775,20.2643481 90.6071167,20.319269 L90.490459,20.3253299 L44.4421863,20.062066 C43.8899106,20.0589086 43.4447623,19.608641 43.447903,19.0563653 C43.4508516,18.5435378 43.8393019,18.1230804 44.3369627,18.0681596 L44.4536204,18.0620987 Z" id="路径-258" fill="#FFFFFF" fill-rule="nonzero"></path>
                        <path d="M42.1394744,26.199122 L87.938213,27.3326146 C88.4903287,27.3462791 88.9268296,27.8049346 88.9134773,28.3570503 C88.9004765,28.8697291 88.5040968,29.2827197 88.0054812,29.3281621 L87.8887293,29.3320023 L42.0899907,28.1985097 C41.5378751,28.1848452 41.1013742,27.7261897 41.1147265,27.174074 C41.1277272,26.6613951 41.5241069,26.2484046 42.0227226,26.2029622 L42.1394744,26.199122 Z" id="路径-259" fill="#FFFFFF" fill-rule="nonzero"></path>
                    </g>
                    <g id="编组-69" transform="translate(59.000000, 108.000000) rotate(-16.000000) translate(-59.000000, -108.000000) translate(5.000000, 84.000000)">
                        <path d="M11.7739999,0.263164868 L106.292563,0.263164868 C106.819848,0.263164868 107.120597,0.68607161 106.964305,1.20775351 L96.7766055,35.2129448 C96.6203135,35.7346267 96.0661653,36.1575334 95.5388808,36.1575334 L34.2216784,36.1575334 L16.3191333,47.2631649 L13.9373344,36.1575334 L1.02031727,36.1575334 C0.493032811,36.1575334 0.192283979,35.7346267 0.348575951,35.2129448 L10.5362753,1.20775351 C10.6925673,0.68607161 11.2467155,0.263164868 11.7739999,0.263164868 Z" id="矩形" fill="#C9DCFF"></path>
                        <path d="M20.7535102,27.7593798 C26.2278589,27.7593798 31.9954338,23.2822273 33.6357493,17.7593798 C35.2760649,12.2365323 32.1679669,7.75937976 26.6936182,7.75937976 C21.2192695,7.75937976 15.4516945,12.2365323 13.811379,17.7593798 C12.1710635,23.2822273 15.2791615,27.7593798 20.7535102,27.7593798 Z" id="椭圆形" fill="#FFBB3C"></path>
                        <path d="M92.9084867,9.8756498 C93.4607403,9.86978621 93.9131837,10.3127228 93.9191048,10.8649765 C93.924492,11.3777834 93.5429611,11.8045295 93.0462637,11.8675716 L92.9297206,11.8755371 L46.6651038,12.3667549 C46.1128502,12.3726185 45.6604068,11.9296819 45.6544857,11.3774283 C45.6490984,10.8646213 46.0306294,10.4378753 46.5273268,10.3748332 L46.6438699,10.3668677 L92.9084867,9.8756498 Z" id="路径-257" fill="#FFFFFF" fill-rule="nonzero"></path>
                        <path d="M44.4536204,18.0620987 L90.501893,18.3253626 C91.0541688,18.32852 91.4993171,18.7787875 91.4961764,19.3310633 C91.4932278,19.8438907 91.1047775,20.2643481 90.6071167,20.319269 L90.490459,20.3253299 L44.4421863,20.062066 C43.8899106,20.0589086 43.4447623,19.608641 43.447903,19.0563653 C43.4508516,18.5435378 43.8393019,18.1230804 44.3369627,18.0681596 L44.4536204,18.0620987 Z" id="路径-258" fill="#FFFFFF" fill-rule="nonzero"></path>
                        <path d="M42.1394744,26.199122 L87.938213,27.3326146 C88.4903287,27.3462791 88.9268296,27.8049346 88.9134773,28.3570503 C88.9004765,28.8697291 88.5040968,29.2827197 88.0054812,29.3281621 L87.8887293,29.3320023 L42.0899907,28.1985097 C41.5378751,28.1848452 41.1013742,27.7261897 41.1147265,27.174074 C41.1277272,26.6613951 41.5241069,26.2484046 42.0227226,26.2029622 L42.1394744,26.199122 Z" id="路径-259" fill="#FFFFFF" fill-rule="nonzero"></path>
                    </g>
                    <path d="M208.281913,94.5591596 L570.187665,2.84120355 C575.005905,1.62011459 579.901748,4.53618161 581.122837,9.35442151 C581.305997,10.0771449 581.398642,10.8198272 581.398642,11.5653986 L581.398642,88.8194384 L581.398642,88.8194384 L581.398642,357.935425 C581.398642,362.905988 577.369205,366.935425 572.398642,366.935425 L210.49289,366.935425 C205.522327,366.935425 201.49289,362.905988 201.49289,357.935425 L201.49289,103.283355 C201.49289,99.1643675 204.289152,95.571047 208.281913,94.5591596 Z" id="路径-256" fill="#6EA0FD"></path>
                    <path d="M197.281913,97.5591596 L559.187665,5.84120355 C564.005905,4.62011459 568.901748,7.53618161 570.122837,12.3544215 C570.305997,13.0771449 570.398642,13.8198272 570.398642,14.5653986 L570.398642,357.935425 C570.398642,362.905988 566.369205,366.935425 561.398642,366.935425 L199.49289,366.935425 C194.522327,366.935425 190.49289,362.905988 190.49289,357.935425 L190.49289,106.283355 C190.49289,102.164367 193.289152,98.571047 197.281913,97.5591596 Z" id="路径-256" fill="#A4C3FC"></path>
                    <path d="M210.827672,110.603829 L543.827672,27.7788232 C548.651271,26.5790796 553.534155,29.516795 554.733899,34.3403942 C554.910639,35.0509824 555,35.780484 555,36.5127222 L555,346 C555,350.970563 550.970563,355 546,355 L213,355 C208.029437,355 204,350.970563 204,346 L204,119.337728 C204,115.203888 206.816056,111.601614 210.827672,110.603829 Z" id="路径-256" fill="#FFFFFF"></path>
                    <path d="M226.863457,130.161357 L336.286062,104.713349 C338.437778,104.212933 340.587755,105.551575 341.088171,107.70329 C341.157261,108.000367 341.192146,108.30437 341.192146,108.609375 L341.192146,337.161932 C341.192146,339.320917 339.478843,341.09032 337.320979,341.159857 L227.898374,344.685985 C225.690381,344.757138 223.842769,343.024886 223.771617,340.816893 C223.770233,340.773963 223.769541,340.731013 223.769541,340.688061 L223.769541,134.057382 C223.769541,132.197309 225.051735,130.582703 226.863457,130.161357 Z" id="路径-264" fill="#FFDA92"></path>
                    <path d="M224.863457,128.161357 L334.286062,102.713349 C336.437778,102.212933 338.587755,103.551575 339.088171,105.70329 C339.157261,106.000367 339.192146,106.30437 339.192146,106.609375 L339.192146,335.161932 C339.192146,337.320917 337.478843,339.09032 335.320979,339.159857 L225.898374,342.685985 C223.690381,342.757138 221.842769,341.024886 221.771617,338.816893 C221.770233,338.773963 221.769541,338.731013 221.769541,338.688061 L221.769541,132.057382 C221.769541,130.197309 223.051735,128.582703 224.863457,128.161357 Z" id="路径-264" fill="#DDE9FF"></path>
                    <path d="M237.705186,273.181315 L323.854694,260.342008 C324.947197,260.179187 325.964839,260.932843 326.12766,262.025346 C326.142206,262.122944 326.149508,262.221484 326.149508,262.32016 L326.149508,314.92859 C326.149508,315.984141 325.3292,316.857972 324.275754,316.924602 L238.126246,322.37349 C237.023879,322.443213 236.073712,321.606091 236.003988,320.503724 C236.00133,320.461695 236,320.419592 236,320.377478 L236,275.159467 C236,274.168758 236.7253,273.327353 237.705186,273.181315 Z" id="路径-265" fill="#ECF3FF"></path>
                    <g id="编组-97" transform="translate(235.000000, 118.816663)">
                        <mask id="mask-4" fill="white">
                            <use xlink:href="#path-3"></use>
                        </mask>
                        <use id="路径-265" fill="#FFFFFF" xlink:href="#path-3"></use>
                        <polygon id="路径-5" fill="#D9E4FF" mask="url(#mask-4)" points="47.3171225 74.5162538 63.4598789 51.0521983 94 80.8691234 47 86.0521983"></polygon>
                        <polygon id="路径-5" fill="#BCD1FF" mask="url(#mask-4)" points="-2.50697349 78.0995905 23.3102954 44.0521983 70 87.9938946 -3 96.0521983"></polygon>
                        <path d="M83.3364832,21.2225907 C90.3430227,20.4758171 96.1819039,14.2817944 96.3779895,7.38785381 C96.5740751,0.493913178 91.0531114,-4.48935033 84.0465719,-3.74257676 C77.0400325,-2.99580318 71.2011512,3.19821951 71.0050656,10.0921601 C70.80898,16.9861008 76.3299437,21.9693643 83.3364832,21.2225907 Z" id="椭圆形" fill="#FFE17F" mask="url(#mask-4)"></path>
                    </g>
                    <g id="编组-117" transform="translate(157.000000, 206.000000)">
                        <path d="M3.37720306,26.3718781 L153.377203,2.72865221 C155.559401,2.38469096 157.607257,3.87487585 157.951218,6.05707331 C157.98369,6.26308315 158,6.47131701 158,6.67987025 L158,41.3397408 C158,43.3291133 156.538039,45.0161467 154.568889,45.2990798 L4.56888898,66.8515022 C2.38220643,67.1656909 0.354849705,65.6477347 0.0406609981,63.4610521 C0.013588198,63.2726315 1.01314139e-14,63.0825187 0,62.8921631 L0,30.3230961 C-1.1014728e-15,28.3543979 1.43251414,26.6784029 3.37720306,26.3718781 Z" id="路径-265" fill="#FFEDCC"></path>
                        <path d="M5.37720306,24.3718781 L155.377203,0.728652213 C157.559401,0.384690963 159.607257,1.87487585 159.951218,4.05707331 C159.98369,4.26308315 160,4.47131701 160,4.67987025 L160,39.3397408 C160,41.3291133 158.538039,43.0161467 156.568889,43.2990798 L6.56888898,64.8515022 C4.38220643,65.1656909 2.3548497,63.6477347 2.040661,61.4610521 C2.0135882,61.2726315 2,61.0825187 2,60.8921631 L2,28.3230961 C2,26.3543979 3.43251414,24.6784029 5.37720306,24.3718781 Z" id="路径-265" fill="#C9DCFF"></path>
                        <path d="M43.3647021,23 C40.8046924,23 38.7294043,25.098193 38.7294043,27.686376 C38.7294043,29.5009791 39.7495781,31.0745874 41.2416465,31.8532086 L35.8211465,42.4270991 C35.4259352,42.4539525 35.0357848,42.5321131 34.6603076,42.6596553 L27.162749,37.4495712 C27.7342617,36.670329 28.0724287,35.7057286 28.0724287,34.6611254 C28.0724287,32.0729059 25.9971045,29.9747493 23.4370947,29.9747493 C20.877085,29.9747493 18.8017969,32.0729424 18.8017969,34.6611254 C18.8017969,36.0270916 19.3799941,37.2563589 20.3022119,38.1129372 L15.6147021,46.6275036 C13.0641953,46.6387917 11,48.7323818 11,51.313624 C11,53.90188 13.0753242,56 15.6352979,56 C18.1953076,56 20.2706318,53.9018435 20.2706318,51.313624 C20.2706318,49.6868997 19.4506699,48.2538991 18.2059307,47.4136137 L22.6809795,39.28507 C22.9309385,39.3265722 23.1838236,39.3474394 23.4371309,39.3474649 C23.944833,39.3474649 24.4333848,39.2646492 24.8905732,39.1121689 L32.4012119,44.3312762 C31.8373955,45.1074498 31.5041426,46.065438 31.5041426,47.1022602 C31.5041426,49.6904797 33.5794668,51.7886362 36.1394404,51.7886362 C38.6994141,51.7886362 40.7747383,49.6904432 40.7747383,47.1022602 C40.7747383,45.3811033 39.8567842,43.8769039 38.4890127,43.0620805 L43.9905947,32.3300474 C46.2545322,32.0210684 48,30.0599396 48,27.686376 C48,25.0981565 45.9246758,23 43.3647021,23 Z M15.9999816,54 C14.8954509,54 14,53.1045777 14,52 C14,50.8954592 14.8954509,50 15.9999816,50 C17.1045491,50 18,50.8954592 18,52 C18,53.1046145 17.1045491,54 15.9999816,54 Z M22.9999816,37 C21.8954509,37 21,36.1045777 21,35 C21,33.8954592 21.8954509,33 22.9999816,33 C24.1045491,33 25,33.8954592 25,35 C25,36.1045777 24.1045491,37 22.9999816,37 L22.9999816,37 Z M36,50 C34.8954592,50 34,49.1045408 34,48 C34,46.8954592 34.8954592,46 36,46 C37.1045408,46 38,46.8954592 38,48 C38,49.1045408 37.1045408,50 36,50 Z M43,30 C41.8954592,30 41,29.1045408 41,28 C41,26.8954592 41.8954592,26 43,26 C44.1045408,26 45,26.8954223 45,28 C45,29.1045777 44.1045408,30 43,30 L43,30 Z" id="形状" fill="#FFEDCC" fill-rule="nonzero"></path>
                        <path d="M145.205793,11.4423574 C145.751081,11.3547211 146.264167,11.7257206 146.351803,12.271008 C146.433179,12.7773463 146.1191,13.2559191 145.637228,13.3918698 L145.523152,13.4170176 L61.0864139,26.9873301 C60.5411265,27.0749664 60.0280405,26.7039669 59.9404042,26.1586795 C59.8590277,25.6523412 60.1731075,25.1737684 60.6549789,25.0378177 L60.7690549,25.0126699 L145.205793,11.4423574 Z" id="路径-279" fill="#FFFFFF" fill-rule="nonzero"></path>
                        <path d="M145.205793,22.4423574 C145.751081,22.3547211 146.264167,22.7257206 146.351803,23.271008 C146.433179,23.7773463 146.1191,24.2559191 145.637228,24.3918698 L145.523152,24.4170176 L61.0864139,37.9873301 C60.5411265,38.0749664 60.0280405,37.7039669 59.9404042,37.1586795 C59.8590277,36.6523412 60.1731075,36.1737684 60.6549789,36.0378177 L60.7690549,36.0126699 L145.205793,22.4423574 Z" id="路径-279" fill="#FFFFFF" fill-rule="nonzero"></path>
                        <path d="M125.908262,36.0139572 C126.452838,35.9220061 126.968846,36.2889314 127.060797,36.8335078 C127.14618,37.3391859 126.835899,37.8202306 126.35512,37.9599924 L126.241246,37.9860428 L61.0942266,48.9860428 C60.5496502,49.0779939 60.0336427,48.7110686 59.9416916,48.1664922 C59.8563084,47.6608141 60.1665891,47.1797694 60.6473689,47.0400076 L60.7612422,47.0139572 L125.908262,36.0139572 Z" id="路径-279" fill="#FFFFFF" fill-rule="nonzero"></path>
                    </g>
                    <polygon id="路径-266" fill="#FFDA92" points="370 91.8674255 535.075525 51 535.075525 82.543323 370 119.387777"></polygon>
                    <polygon id="路径-266" fill="#DDE9FF" points="368 90.8674255 533.075525 50 533.075525 81.543323 368 118.387777"></polygon>
                    <g id="编组-96" transform="translate(368.062023, 95.741143)">
                        <polygon id="路径-267" fill="#FFDA92" points="2 36.5275316 167.546395 2 167.546395 129.549352 2 155.76683"></polygon>
                        <polygon id="路径-267" fill="#DDE9FF" points="1.42108547e-14 34.5275316 165.546395 -5.68434189e-14 165.546395 127.549352 1.42108547e-14 153.76683"></polygon>
                        <g id="编组-95" transform="translate(8.720586, 18.074266)">
                            <polygon id="矩形备份-15" fill="#FFFFFF" points="24.0316206 42.2657429 30.0395257 41.3162884 30.0395257 124.675972 24.0316206 125.625427"></polygon>
                            <polygon id="矩形备份-19" fill="#FFFFFF" points="72.8458498 46.5672351 78.8537549 45.6177806 78.8537549 116.961654 72.8458498 117.911109"></polygon>
                            <polygon id="矩形备份-13" fill="#FFFFFF" points="-7.46069873e-14 76.1030867 6.00790514 75.1536322 6.00790514 128.47379 3.90798505e-14 129.423245"></polygon>
                            <polygon id="矩形备份-16" fill="#FFFFFF" points="48.8142292 63.1318516 54.8221344 62.1823971 54.8221344 120.759472 48.8142292 121.708927"></polygon>
                            <polygon id="矩形备份-20" fill="#FFFFFF" points="97.6284585 15.615162 103.636364 14.6657075 103.636364 113.045154 97.6284585 113.994609"></polygon>
                            <polygon id="矩形备份-23" fill="#FFFFFF" points="134.426877 47.3491601 140.434783 46.3997056 140.434783 107.229745 134.426877 108.1792"></polygon>
                            <polygon id="矩形备份-17" fill="#FFFFFF" points="36.0474308 70.4063595 42.055336 69.456905 42.055336 122.777063 36.0474308 123.726518"></polygon>
                            <polygon id="矩形备份-21" fill="#FFFFFF" points="84.8616601 25.1426343 90.8695652 24.1931798 90.8695652 115.062745 84.8616601 116.0122"></polygon>
                            <polygon id="矩形备份-24" fill="#FFFFFF" points="121.660079 15.5722846 127.667984 14.6228301 127.667984 109.247336 121.660079 110.196791"></polygon>
                            <polygon id="矩形备份-14" fill="#FFFFFF" points="12.0158103 59.1844148 18.0237154 58.2349603 18.0237154 126.574881 12.0158103 127.524336"></polygon>
                            <polygon id="矩形备份-18" fill="#FFFFFF" points="60.8300395 56.7270137 66.8379447 55.7775592 66.8379447 118.860563 60.8300395 119.810018"></polygon>
                            <polygon id="矩形备份-22" fill="#6EA0FD" points="109.644269 0.949454533 115.652174 1.42108547e-14 115.652174 111.146245 109.644269 112.0957"></polygon>
                            <polygon id="矩形备份-25" fill="#FFFFFF" points="146.442688 30.4304882 152.450593 29.4810337 152.450593 105.330836 146.442688 106.280291"></polygon>
                        </g>
                    </g>
                    <polygon id="路径-267" fill="#FFDA92" points="371 267.527532 536.546395 246 536.546395 333.549352 371 336.76683"></polygon>
                    <polygon id="路径-267" fill="#DDE9FF" points="369 265.527532 534.546395 244 534.546395 331.549352 369 334.76683"></polygon>
                    <g id="编组-4" transform="translate(379.000000, 265.000000)">
                        <g id="编组-94" transform="translate(0.000000, 0.131139)">
                            <mask id="mask-6" fill="white">
                                <use xlink:href="#path-5"></use>
                            </mask>
                            <use id="矩形" fill="#FFFFFF" xlink:href="#path-5"></use>
                            <polygon id="路径-5" fill="#D9E4FF" mask="url(#mask-6)" points="44.3171225 61.3329164 60.4598789 37.868861 91 67.685786 44 72.868861"></polygon>
                            <polygon id="路径-5" fill="#BCD1FF" mask="url(#mask-6)" points="-5.50697349 64.9162531 20.3102954 30.868861 67 74.8105572 -6 82.868861"></polygon>
                            <path d="M73.7703924,17.0392534 C80.7769318,16.2924798 86.6158131,10.0984571 86.8118987,3.20451646 C87.0079843,-3.68942418 81.4870205,-8.67268768 74.4804811,-7.92591411 C67.4739416,-7.17914054 61.6350604,-0.985117844 61.4389748,5.90882279 C61.2428892,12.8027634 66.7638529,17.7860269 73.7703924,17.0392534 Z" id="椭圆形" fill="#FFE17F" mask="url(#mask-6)"></path>
                        </g>
                        <mask id="mask-8" fill="white">
                            <use xlink:href="#path-7"></use>
                        </mask>
                        <use id="椭圆形" fill="#BED2FF" xlink:href="#path-7"></use>
                        <path d="M97.4737139,13.6140953 C99.0906029,13.4588625 100.438168,12.1670188 100.483586,10.7286817 C100.529003,9.29034449 99.2550733,8.25018289 97.6381844,8.40541568 C96.0212954,8.56064848 94.67373,9.85249218 94.6283127,11.2908293 C94.5828954,12.7291665 95.856825,13.7693281 97.4737139,13.6140953 Z" id="椭圆形" fill="#FFFFFF" mask="url(#mask-8)"></path>
                        <path d="M96.4152074,26.5290214 C99.6489853,26.1668116 102.344116,23.1525096 102.434951,19.7963896 C102.525785,16.4402695 99.9779262,14.0132258 96.7441482,14.3754356 C93.5103703,14.7376455 90.8152394,17.7519474 90.7244049,21.1080675 C90.6335704,24.4641875 93.1814294,26.8912313 96.4152074,26.5290214 Z" id="椭圆形复制" fill="#FFFFFF" mask="url(#mask-8)"></path>
                        <path d="M115.419626,3.19200071 L133.563495,1.24476283 C135.292252,1.05922903 136.654221,2.30598493 136.605538,4.02947009 C136.556854,5.75295525 135.115954,7.30052089 133.387197,7.4860547 L115.243327,9.43329258 C113.51457,9.61882639 112.152601,8.37207048 112.201285,6.64858532 C112.249968,4.92510016 113.690869,3.37753452 115.419626,3.19200071 Z" id="矩形" fill="#D4DFF2"></path>
                        <path d="M114.165707,12.8165987 L152.321637,8.62461658 C153.377106,8.50865795 154.208638,9.28788039 154.178915,10.3650586 C154.149192,11.4422368 153.269469,12.4094654 152.214,12.525424 L114.05807,16.7174061 C113.002601,16.8333648 112.171069,16.0541423 112.200792,14.9769641 C112.230515,13.8997859 113.110238,12.9325573 114.165707,12.8165987 Z" id="矩形" fill="#D4DFF2"></path>
                        <path d="M91.7159597,30.870606 L152.317389,24.2278462 C153.375271,24.1118876 154.208704,24.8911101 154.178913,25.9682883 C154.149122,27.0454665 153.267389,28.012695 152.209506,28.1286537 L91.6080769,34.7714134 C90.5501945,34.887372 89.7167617,34.1081496 89.7465527,33.0309714 C89.7763438,31.9537932 90.6580773,30.9865646 91.7159597,30.870606 Z" id="矩形" fill="#DDEAFF" opacity="0.8"></path>
                        <path d="M91.6861085,40.2325438 L151.369334,33.589784 C152.411188,33.4738254 153.231993,34.2530479 153.202653,35.3302261 C153.173314,36.4074043 152.30494,37.3746328 151.263086,37.4905915 L91.5798602,44.1333512 C90.5380063,44.2493098 89.7172014,43.4700874 89.746541,42.3929092 C89.7758807,41.315731 90.6442546,40.3485024 91.6861085,40.2325438 Z" id="矩形" fill="#DDEAFF" opacity="0.8"></path>
                        <path d="M90.7744263,48.8143201 L117.138785,45.9744911 C118.215319,45.8585325 119.063447,46.637755 119.033131,47.7149332 C119.002815,48.7921114 118.105534,49.7593399 117.029,49.8752986 L90.6646413,52.7151275 C89.5881065,52.8310862 88.7399788,52.0518637 88.7702951,50.9746855 C88.8006113,49.8975073 89.6978915,48.9302787 90.7744263,48.8143201 Z" id="矩形" fill="#DDEAFF" opacity="0.8"></path>
                    </g>
                    <g id="编组-71" transform="translate(464.667702, 194.000000)">
                        <path d="M90.5,211.417283 C131.411671,211.417283 164.723117,172.19637 165.964467,123.248405 C165.971957,122.945086 139.185967,122.001379 85.6064967,120.417283 C86.8528622,59.8202117 87.2678467,29.5216759 86.8514502,29.5216759 C78.0881314,29.5216759 67.3143878,28.3186532 59.3201802,32.4071006 C32.2635839,46.2445531 15,82.7599988 15,120.417283 C15,170.675196 48.8025014,211.417283 90.5,211.417283 Z" id="椭圆形" fill="#FFBB3C"></path>
                        <g id="编组-110" transform="translate(0.000000, 29.520239)">
                            <mask id="mask-10" fill="white">
                                <use xlink:href="#path-9"></use>
                            </mask>
                            <use id="椭圆形" fill="#FFDA92" xlink:href="#path-9"></use>
                            <path d="M80.5,181.897044 C121.411671,181.897044 154.723117,142.67613 155.964298,93.7281658 C155.9719,93.424847 129.185967,92.4811398 75.6064967,90.8970441 C76.8524081,30.276106 77.2673926,-0.022908698 76.8514502,1.42108547e-14 C36.8483985,2.29556938 5,42.1134466 5,90.8970441 C5,141.154956 38.8025014,181.897044 80.5,181.897044 Z" id="椭圆形" fill="#FFCA65" mask="url(#mask-10)"></path>
                        </g>
                        <path d="M87.1375486,112.177134 L155.213764,75.057924 C160.743134,88.3424225 162.456773,100.715492 160.354682,112.177134 L87.1375486,112.177134 Z" id="路径-262" fill="#C4D6FF"></path>
                        <path d="M155.213764,75.057924 L173.278988,75.057924 C178.730495,89.0905041 180.833826,101.463574 179.588979,112.177134 L160.610526,112.499882 L155.213764,75.057924 Z" id="路径-263" fill="#6EA0FD"></path>
                        <path d="M81.6084181,1.09954028 C126.800046,-4.72759386 159.460233,12.6064236 179.588979,53.1015928 L83.1316923,107.100323 L83.1316923,96.3160157 L160.354682,52.2610875 L81.6084181,1.09954028 Z" id="路径-261" fill="#FFBB3C"></path>
                        <path d="M83.1316923,96.3160157 L160.354682,52.2610875 C147.427075,20.1081788 121.17832,3.05432969 81.6084181,1.09954028 L83.1316923,96.3160157 Z" id="路径-260" fill="#FFCA65"></path>
                    </g>
                    <path d="M185.090803,261.681908 C184.447671,262.461872 183.805908,263.223823 183.165519,263.967761 L183.9234,264.620154 C184.568433,263.870822 185.214746,263.103468 185.862341,262.318092 L185.090803,261.681908 Z M181.190516,266.209832 C180.512462,266.961547 179.83597,267.69288 179.161044,268.403831 L179.886286,269.092324 C180.567109,268.375162 181.249368,267.637594 181.933068,266.879621 L181.190516,266.209832 Z M177.072096,270.544178 C176.354975,271.258212 175.639654,271.949004 174.926136,272.616555 L175.609329,273.346792 C176.330488,272.672093 177.053269,271.974098 177.777676,271.252807 L177.072096,270.544178 Z M172.713313,274.61736 C171.950207,275.283272 171.189208,275.922307 170.430321,276.534468 L171.05817,277.312803 C171.827194,276.692465 172.598071,276.045136 173.370807,275.37082 L172.713313,274.61736 Z M168.06678,278.359185 C167.252189,278.959702 166.440091,279.52888 165.630492,280.066729 L166.18385,280.899673 C167.007156,280.352718 167.832591,279.774192 168.660166,279.164104 L168.06678,278.359185 Z M163.089374,281.656851 C162.218187,282.168174 161.349966,282.642742 160.484717,283.080573 L160.93622,283.972842 C161.820191,283.525538 162.706634,283.04101 163.595556,282.519278 L163.089374,281.656851 Z M157.811566,284.320362 C156.884405,284.710952 155.960719,285.058775 155.040502,285.363863 L155.355197,286.313056 C156.300509,285.999648 157.248712,285.642593 158.199798,285.241923 L157.811566,284.320362 Z M152.175949,286.178229 C151.204852,286.408069 150.237617,286.589616 149.274205,286.722907 L149.411252,287.713472 C150.406213,287.575816 151.404564,287.388428 152.406267,287.151344 L152.175949,286.178229 Z M146.295185,286.981731 C145.308895,287.016253 144.326499,286.999411 143.347925,286.931213 L143.278402,287.928793 C144.291807,287.999419 145.309085,288.016858 146.330165,287.981119 L146.295185,286.981731 Z M140.364502,286.602093 C139.386041,286.461451 138.41046,286.290002 137.439842,286.088483 L137.236558,287.067602 C138.227323,287.273304 139.223248,287.448329 140.222227,287.59192 L140.364502,286.602093 Z M134.545629,285.394606 C133.589705,285.134397 132.642408,284.845419 131.70619,284.528745 L131.385775,285.476023 C132.341029,285.799135 133.307588,286.093989 134.282979,286.359497 L134.545629,285.394606 Z M128.920227,283.49139 C127.998985,283.116136 127.093379,282.714383 126.206259,282.287668 L125.772787,283.188835 C126.678401,283.624445 127.602761,284.034519 128.542988,284.417506 L128.920227,283.49139 Z M123.553557,280.906271 C122.68262,280.416463 121.836297,279.902952 121.017829,279.367911 L120.470659,280.204932 C121.307807,280.752185 122.173136,281.277228 123.063368,281.777887 L123.553557,280.906271 Z M118.607217,277.66844 C117.807341,277.060205 117.044175,276.431998 116.321286,275.786834 L115.655427,276.532912 C116.398017,277.195658 117.181394,277.840502 118.001927,278.464444 L118.607217,277.66844 Z M114.188614,273.709529 C113.497937,272.972438 112.861397,272.221147 112.282689,271.459791 L111.486566,272.064926 C112.086356,272.854018 112.745084,273.631497 113.458906,274.393287 L114.188614,273.709529 Z M110.626603,268.983623 C110.120172,268.10904 109.693394,267.230211 109.34956,266.352565 L108.418464,266.71734 C108.781099,267.642974 109.229944,268.567244 109.761216,269.484728 L110.626603,268.983623 Z M108.531351,263.528368 C108.350375,262.555066 108.278162,261.59327 108.316693,260.648557 L107.317524,260.607806 C107.275891,261.628576 107.353728,262.665276 107.548202,263.711175 L108.531351,263.528368 Z M108.771477,257.848705 C109.049461,256.862897 109.397651,255.957943 109.811496,255.135872 L108.918293,254.686218 C108.475204,255.566382 108.104045,256.531032 107.809011,257.577303 L108.771477,257.848705 Z M111.428453,252.706422 C112.078266,251.963279 112.806032,251.345559 113.597919,250.85707 L113.072906,250.005975 C112.195503,250.547216 111.391043,251.230034 110.675657,252.048168 L111.428453,252.706422 Z M116.234666,249.765725 C117.15615,249.547854 118.112596,249.474821 119.073881,249.545734 L119.14745,248.548443 C118.085315,248.470091 117.026476,248.550942 116.004575,248.792556 L116.234666,249.765725 Z M121.879984,250.168317 C122.773099,250.504474 123.621625,250.964722 124.396232,251.534669 L124.988881,250.729208 C124.14045,250.104943 123.211032,249.600818 122.232245,249.232415 L121.879984,250.168317 Z M126.505084,253.604976 C127.082531,254.36127 127.555893,255.19714 127.911672,256.097958 L128.841759,255.730618 C128.451993,254.743747 127.933019,253.827334 127.299895,252.99812 L126.505084,253.604976 Z M128.57912,258.810075 C128.685796,259.741175 128.684079,260.711082 128.574817,261.699026 L129.568757,261.808951 C129.68611,260.747844 129.68796,259.702966 129.572621,258.696251 L128.57912,258.810075 Z M127.967503,264.561893 C127.680689,265.477013 127.3079,266.37969 126.855063,267.253373 L127.742894,267.713543 C128.222403,266.7884 128.617446,265.831837 128.921734,264.860965 L127.967503,264.561893 Z M125.276257,269.752881 C124.689646,270.527688 124.037979,271.254552 123.328105,271.923152 L124.013733,272.651105 C124.764417,271.944068 125.453393,271.175589 126.073529,270.356501 L125.276257,269.752881 Z M121.042663,273.736254 C120.234706,274.271803 119.380274,274.738904 118.484601,275.132057 L118.886533,276.047727 C119.8349,275.631443 120.739678,275.13682 121.595155,274.569772 L121.042663,273.736254 Z M115.633981,276.095352 C114.702269,276.32252 113.7401,276.476629 112.750535,276.554954 L112.829439,277.551836 C113.872172,277.469303 114.88717,277.306732 115.87086,277.066891 L115.633981,276.095352 Z M109.894604,276.572936 C109.362433,276.538932 108.824285,276.484383 108.280458,276.409032 C107.88737,276.354567 107.489015,276.266559 107.086117,276.145159 L106.797613,277.102638 C107.249298,277.238738 107.698155,277.337903 108.143213,277.399569 C108.711342,277.478287 109.273998,277.535321 109.830837,277.570901 L109.894604,276.572936 Z M104.468159,274.923082 C103.699754,274.441302 102.925754,273.850371 102.152222,273.154573 L101.483459,273.89805 C102.298437,274.631127 103.118051,275.256884 103.936951,275.770323 L104.468159,274.923082 Z M100.083278,271.040323 C99.4638731,270.330578 98.850317,269.557413 98.2455796,268.724213 L97.4362774,269.311605 C98.0582287,270.168522 98.6903511,270.965083 99.329849,271.697852 L100.083278,271.040323 Z M96.6075483,266.284971 C96.0995607,265.469909 95.6011971,264.613638 95.1141321,263.718638 L94.235776,264.196645 C94.7321159,265.108688 95.240361,265.981937 95.7588832,266.813901 L96.6075483,266.284971 Z M93.7496763,261.047772 C93.3291412,260.171433 92.9197498,259.266377 92.5225374,258.334454 L91.6026139,258.726552 C92.0055965,259.672013 92.4211019,260.590585 92.8481101,261.480413 L93.7496763,261.047772 Z M91.4007112,255.545094 C91.0533394,254.629212 90.7177645,253.692443 90.3946657,252.736199 L89.4472835,253.056303 C89.7742752,254.024069 90.1139728,254.972347 90.465703,255.89972 L91.4007112,255.545094 Z M89.4811033,249.86927 C89.1982671,248.926695 88.9274871,247.968556 88.6692281,246.995951 L87.702721,247.252591 C87.9637066,248.235464 88.2373853,249.20386 88.5232949,250.156677 L89.4811033,249.86927 Z M87.9537105,244.126901 C87.7292893,243.166305 87.5169866,242.19394 87.3171317,241.210671 L86.3371694,241.409854 C86.5389452,242.402574 86.7533091,243.38438 86.9799326,244.354402 L87.9537105,244.126901 Z M86.765618,238.288594 C86.5956302,237.314279 86.4377636,236.331009 86.2922595,235.339483 L85.3028561,235.484675 C85.4496668,236.485106 85.6089614,237.47727 85.7804989,238.460467 L86.765618,238.288594 Z M85.8999774,232.398363 C85.7818264,231.415149 85.6757392,230.425161 85.5818972,229.428967 L84.5863047,229.522752 C84.6809491,230.527464 84.7879481,231.525961 84.9071203,232.517673 L85.8999774,232.398363 Z M85.3384086,226.43861 C85.2703757,225.449092 85.2143453,224.454525 85.1704575,223.455377 L84.1714208,223.49926 C84.2156707,224.506651 84.2721652,225.509455 84.3407638,226.507202 L85.3384086,226.43861 Z M85.07553,220.453232 C85.0562981,219.460806 85.0489842,218.464732 85.0536993,217.465399 L84.0537104,217.460681 C84.0489574,218.46805 84.0563303,219.472156 84.0757177,220.472607 L85.07553,220.453232 Z M85.1036925,214.470279 C85.1321157,213.477547 85.1723665,212.482316 85.2245345,211.484917 L84.2258996,211.432684 C84.1733197,212.437957 84.1327507,213.441059 84.1041021,214.44166 L85.1036925,214.470279 Z M85.4170902,208.483807 C85.4924222,207.492713 85.5794967,206.500083 85.6783882,205.506195 L84.6833019,205.407184 C84.5836403,206.408811 84.4958868,207.409182 84.4199664,208.408017 L85.4170902,208.483807 Z M86.0101028,202.525005 C86.1315157,201.538294 86.2645694,200.550858 86.4093268,199.562939 L85.4198922,199.417959 C85.2740192,200.413492 85.1399391,201.408545 85.0175883,202.402878 L86.0101028,202.525005 Z M86.879475,196.593858 C87.0462804,195.613771 87.2246159,194.633654 87.4145363,193.653712 L86.432804,193.463445 C86.2414327,194.450873 86.0617332,195.438486 85.8936509,196.426076 L86.879475,196.593858 Z M88.0192758,190.713851 C88.2307286,189.742277 88.453597,188.771266 88.6879289,187.800997 L87.7158762,187.566235 C87.479768,188.543858 87.2552086,189.522236 87.0421498,190.50119 L88.0192758,190.713851 Z M89.4268721,184.886929 C89.6821886,183.925997 89.9487926,182.966139 90.226727,182.007514 L89.26628,181.729051 C88.9862555,182.694885 88.7176446,183.661968 88.4604041,184.630141 L89.4268721,184.886929 Z M91.0958918,179.131274 C91.3942196,178.182731 91.7036988,177.235704 92.0243682,176.29033 L91.0773644,175.969108 C90.7543049,176.921528 90.4425162,177.875622 90.1419597,178.831252 L91.0958918,179.131274 Z M93.0009184,173.511697 L93.2605076,172.80425 C93.5212457,172.099857 93.7864181,171.403919 94.0583055,170.710323 L93.1272817,170.345364 C92.8530735,171.04488 92.5856381,171.746758 92.3226862,172.457132 L92.0611669,173.169839 L93.0009184,173.511697 Z M95.182427,167.946732 C95.5691677,167.029577 95.9673502,166.117908 96.3769295,165.211645 L95.4656717,164.799808 C95.0526073,165.713783 94.6510335,166.633217 94.2609966,167.558189 L95.182427,167.946732 Z M97.6442598,162.499784 C98.0774583,161.602649 98.5220387,160.710885 98.9779588,159.824407 L98.0886778,159.367045 C97.6289258,160.260975 97.1806009,161.160249 96.7437471,162.064954 L97.6442598,162.499784 Z M100.383491,157.173796 C100.860525,156.300728 101.348768,155.432851 101.848182,154.570074 L100.982718,154.069104 C100.479195,154.938979 99.9869222,155.814018 99.5059396,156.694312 L100.383491,157.173796 Z M103.375793,152.003666 C103.894716,151.155446 104.424641,150.312209 104.965534,149.473857 L104.125247,148.931715 C103.580037,149.776758 103.045864,150.626754 102.522764,151.481801 L103.375793,152.003666 Z M106.617741,146.978291 C107.176159,146.155981 107.745328,145.338414 108.325222,144.525486 L107.511125,143.944758 C106.926777,144.763929 106.353214,145.587807 105.790463,146.416498 L106.617741,146.978291 Z M110.095018,142.103237 C110.689993,141.307921 111.295423,140.517074 111.911292,139.730586 L111.123961,139.114056 C110.503576,139.906311 109.893679,140.702992 109.294288,141.504212 L110.095018,142.103237 Z M113.791368,137.382659 C114.420946,136.613537 115.060689,135.848598 115.710591,135.087724 L114.950211,134.438245 C114.295792,135.204408 113.651572,135.9747 113.017557,136.749243 L113.791368,137.382659 Z M117.656388,132.85581 C118.316576,132.113693 118.986601,131.375441 119.666469,130.640926 L118.93259,129.961646 C118.248269,130.700971 117.573822,131.444096 116.909243,132.191149 L117.656388,132.85581 Z M121.720507,128.464173 C122.408255,127.749093 123.105499,127.037537 123.812262,126.329368 L123.104453,125.622964 C122.393355,126.335477 121.691798,127.051434 120.99976,127.770974 L121.720507,128.464173 Z M125.951491,124.224203 C126.664583,123.53487 127.386856,122.848706 128.118353,122.165566 L127.435815,121.434715 C126.70014,122.121758 125.973703,122.811877 125.256463,123.50522 L125.951491,124.224203 Z M130.328272,120.136154 C131.065141,119.470636 131.810922,118.807925 132.565681,118.147861 L131.907374,117.395111 C131.14862,118.058669 130.398853,118.724921 129.658008,119.394032 L130.328272,120.136154 Z M134.843674,116.186705 C135.60028,115.545366 136.365523,114.906442 137.139495,114.269753 L136.504204,113.49748 C135.726456,114.137275 134.957441,114.779349 134.197066,115.423882 L134.843674,116.186705 Z M139.468388,112.381646 C140.243743,111.762027 141.027531,111.144416 141.819885,110.528611 L141.206237,109.739032 C140.410338,110.357592 139.623004,110.977997 138.844102,111.60045 L139.468388,112.381646 Z M144.18724,108.713299 C144.978739,108.114379 145.778516,107.517026 146.586753,106.921012 L145.99325,106.11618 C145.181715,106.714626 144.378636,107.314445 143.58383,107.915868 L144.18724,108.713299 Z M149.016744,105.151348 C149.821999,104.572112 150.635444,103.993963 151.457322,103.416636 L150.882517,102.598346 C150.0576,103.177807 149.241111,103.75812 148.432803,104.339552 L149.016744,105.151348 Z M153.903277,101.717913 C154.721145,101.15624 155.547228,100.595126 156.38186,100.034254 L155.8241,99.2042521 C154.986694,99.7669878 154.157828,100.329992 153.337167,100.893584 L153.903277,101.717913 Z M158.880001,98.372938 C159.708357,97.8276985 160.545083,97.282411 161.390639,96.7366869 L160.848369,95.8964826 C160.000313,96.4438201 159.161076,96.9907443 158.330196,97.5376454 L158.880001,98.372938 Z M163.916662,95.121633 C164.753625,94.5914257 165.599303,94.0604556 166.454345,93.528227 L165.925898,92.6792607 C165.068637,93.2128707 164.220726,93.7452425 163.381516,94.2768736 L163.916662,95.121633 Z M168.998493,91.9577104 C169.842513,91.440919 170.695883,90.9224873 171.559552,90.4017499 L171.043209,89.5453683 C170.177607,90.0672707 169.32229,90.5868852 168.476307,91.1048792 L168.998493,91.9577104 Z M173.615853,88.0053959 L174.126799,88.8650083 L175.840174,87.8511397 C176.128203,87.6814491 176.417502,87.5113787 176.708125,87.340893 L176.202139,86.4783512 L174.47056,87.4985071 C174.184462,87.6678007 173.899578,87.8367518 173.615853,88.0053959 Z M178.800998,84.9630752 L179.30247,85.8282489 L181.90023,84.3307765 L181.402798,83.4632736 L179.659321,84.4664971 C179.371784,84.6325449 179.085707,84.7980521 178.800998,84.9630752 Z M184.509221,82.8420418 L186.236813,81.8636289 C186.528716,81.6987654 186.822724,81.5329351 187.119015,81.3660337 L186.628223,80.4947571 L184.015358,81.9725022 L184.509221,82.8420418 Z M189.737904,79.8960549 L192.356345,78.4354098 L191.87016,77.5615539 L189.24968,79.0233365 L189.737904,79.8960549 Z M194.986017,76.9754778 L197.610706,75.523068 L197.126942,74.6478697 L194.50133,76.1007903 L194.986017,76.9754778 Z M200.233262,74.0742914 L202.859505,72.6235353 L202.375764,71.7483241 L199.749824,73.1989131 L200.233262,74.0742914 Z M205.488563,71.1687421 L207.970355,69.7907218 L207.484077,68.9169177 L205.003852,70.2940677 L205.488563,71.1687421 Z" id="路径-353" fill="#FFCA65" fill-rule="nonzero"></path>
                </g>
                <g id="男2" transform="translate(64.667702, 129.000000)">
                    <g id="鞋" transform="translate(277.106094, 306.017743) rotate(-16.000000) translate(-277.106094, -306.017743) translate(190.106094, 265.017743)">
                        <g id="编组" transform="translate(0.000000, 1.525616)">
                            <mask id="mask-12" fill="white">
                                <use xlink:href="#path-11"></use>
                            </mask>
                            <use id="路径-10" fill="#FFFFFF" xlink:href="#path-11"></use>
                            <path d="M61.3579568,-1.71807462 L45.2704008,8.38056036 L45.5234261,8.88580673 C51.838751,21.4963825 58.7262226,28.0690171 66.2396684,28.5011266 L67.9329838,28.590709 C78.1574753,29.0886896 95.8408576,29.2383477 111.455433,28.5991142 L113.247391,28.5218305 C138.82474,27.3613937 156.752535,24.2842367 163.367308,18.71976 L163.831826,18.3289988 L163.452566,17.8549381 C158.925675,12.1964936 152.937257,8.97598364 145.522732,8.2090666 L140.452179,7.6534144 C129.6242,6.43208618 106.178509,3.65863553 70.1209877,-0.666273523 L61.3579568,-1.71807462 Z M46.8891395,8.83252916 L61.6457931,-0.431199858 L107.991644,5.10940655 C128.429717,7.53557321 140.896493,8.98113614 145.394925,9.44642883 L145.982195,9.51288794 C152.406477,10.3031166 157.65331,13.0463548 161.749976,17.7546635 L162.085761,18.1497482 L161.890141,18.2967939 C155.127507,23.2221982 138.007896,26.1034691 114.049644,27.2393277 L113.19109,27.2791525 C96.3093239,28.0450733 76.4994795,27.8451765 66.3109923,27.2592214 L65.9631812,27.2343029 C59.3608917,26.6678032 53.1077534,20.7970118 47.2499167,9.53397605 L46.8891395,8.83252916 Z" id="路径-11" fill="#A4C1FF" fill-rule="nonzero" mask="url(#mask-12)"></path>
                            <path d="M1.4993632,35.1117527 C17.0582923,33.7394344 30.8926989,41.329298 43.002583,57.8813433 L1.24308429,66.7487708 L1.4993632,35.1117527 Z" id="路径-15" fill="#FFC659" mask="url(#mask-12)"></path>
                            <path d="M3.13408897,37.4711883 C17.0286957,36.2362833 29.3832502,43.066157 40.1977527,57.9608095 L2.90522395,65.9403219 L3.13408897,37.4711883 Z" id="路径-15" fill="#FFBB3C" mask="url(#mask-12)"></path>
                            <polygon id="路径-13" fill="#4C76D0" mask="url(#mask-12)" points="5.67849159 64.9873118 173.436966 33.0271571 176.496968 41.5252856 10.4468852 85.4178064"></polygon>
                            <path d="M6.44267892,9.34039301 L-4.56580382,9.34039301 L0.101713155,38.5688699 L4.93373578,36.2292273 C9.38551379,33.2866735 13.2840933,26.751257 16.7534727,16.580315 L17.1463277,15.4111451 L6.44267892,9.34039301 Z M6.11473163,10.5840171 L15.6404866,15.9865114 L15.5797781,16.1704078 C12.1909519,26.1071957 8.41892353,32.4353127 4.31993225,35.1507131 L1.06532324,36.7207447 L-3.10771073,10.5840171 L6.11473163,10.5840171 Z" id="路径-14" fill="#A4C1FF" fill-rule="nonzero" mask="url(#mask-12)"></path>
                            <polygon id="路径-16" fill="#79A5FF" mask="url(#mask-12)" points="6.27878962 72.2208343 72.6611903 57.7343526 6.27878962 75.763189"></polygon>
                            <path d="M61.3539793,0.776305981 L60.0293284,0.0110868725 L0.805058881,12.6960559 L8.65930383,69.8943722 C9.92719875,77.2688855 13.3484821,80.5855784 18.7963846,79.5596608 L19.10113,79.4981959 C24.0158745,78.4420375 69.5532476,66.9294716 155.796966,44.939688 L169.631348,41.4115143 C171.959786,40.8175626 173.366197,38.4471855 172.772663,36.1171265 C172.734729,35.9682082 172.688943,35.8214042 172.635496,35.677331 C169.954143,28.4493528 167.304214,23.2612891 164.667132,20.1013426 C159.733376,14.1893501 149.051899,11.0237422 134.903801,11.6432753 C130.759759,11.8247393 127.671358,12.2760368 122.638876,13.2986988 L119.706958,13.9008281 C111.344709,15.5929824 105.787122,15.8286069 96.7979097,14.1854185 C85.078835,12.0432231 73.2644978,7.57452205 61.3539793,0.776305981 Z M2.19280069,13.6702681 L59.8184592,1.32650782 L59.6115633,1.20713471 C72.0206676,8.43797313 84.3419938,13.1730698 96.5745345,15.4091245 C105.448594,17.0312635 111.08664,16.8546769 119.163868,15.2771297 L123.548725,14.3842392 C128.13567,13.4676516 131.076,13.0560363 134.958145,12.8860405 C148.757314,12.2817867 159.073309,15.339079 163.713006,20.8987079 C166.24177,23.9288603 168.833667,29.003308 171.470121,36.1102539 C171.508298,36.2131636 171.541002,36.3180237 171.568098,36.4243941 C171.992051,38.0887244 170.987471,39.7818534 169.324305,40.2061035 L84.7095997,61.7505893 C44.1163394,72.0578236 22.1511883,77.5704368 18.8401333,78.2819689 L18.5579919,78.3386948 C13.8920293,79.2111751 11.0449813,76.4340699 9.88759715,69.7042105 L2.19280069,13.6702681 Z" id="路径-10" fill="#4C76D0" fill-rule="nonzero"></path>
                        </g>
                        <mask id="mask-14" fill="white">
                            <use xlink:href="#path-13"></use>
                        </mask>
                        <use id="路径-9" fill="#FFFFFF" xlink:href="#path-13"></use>
                        <path d="M28.463181,2.81490345 L26.8857246,3.09740089 C16.7801481,4.94632078 9.55807658,7.04290797 5.19917042,9.40352549 C-1.24170658,13.3927508 -0.412049819,16.4549909 7.29064343,17.5038238 C19.135756,19.116707 43.59133,15.1628196 54.7945415,9.22215339 L55.6189713,8.77774037 C59.2108036,6.80769393 61.2097445,5.23661036 61.6758728,3.92269113 C62.3101188,2.13488295 60.6000404,1.17423327 57.1251415,0.83423243 C48.932273,0.238666627 39.3842969,0.900221576 28.463181,2.81490345 Z M57.0196408,2.07360141 C59.7503043,2.34097757 60.7238846,2.88789381 60.504419,3.50652205 C60.1513637,4.5017119 58.0292445,6.09909842 54.2125043,8.12298055 C43.2454464,13.9384228 19.0521526,17.8499057 7.45824447,16.2712277 L6.82984252,16.1807717 C0.84588698,15.2694341 0.620430389,13.7021242 5.82217538,10.4793642 C10.2276002,8.09475598 17.8644363,5.93596854 28.6776979,4.04019559 C39.5046216,2.1420274 48.9527911,1.4873878 57.0196408,2.07360141 Z" id="路径-9备份" fill="#4C76D0" fill-rule="nonzero"></path>
                        <ellipse id="椭圆形" fill="#4C76D0" cx="79.97645" cy="18.9517127" rx="2.48616858" ry="2.48790896"></ellipse>
                        <ellipse id="椭圆形" fill="#4C76D0" cx="89.9211243" cy="21.4396217" rx="2.48616858" ry="2.48790896"></ellipse>
                        <ellipse id="椭圆形" fill="#4C76D0" cx="99.8657987" cy="22.6835761" rx="2.48616858" ry="2.48790896"></ellipse>
                        <ellipse id="椭圆形" fill="#4C76D0" cx="109.810473" cy="22.6835761" rx="2.48616858" ry="2.48790896"></ellipse>
                        <ellipse id="椭圆形" fill="#4C76D0" cx="119.755147" cy="22.6835761" rx="2.48616858" ry="2.48790896"></ellipse>
                        <ellipse id="椭圆形" fill="#4C76D0" cx="129.699822" cy="21.4396217" rx="2.48616858" ry="2.48790896"></ellipse>
                        <path d="M82.2548159,10.5210106 C82.788488,10.0888212 83.5712284,10.171392 84.0031155,10.7054376 C84.4350026,11.2394833 84.3524896,12.0227716 83.8188175,12.454961 C82.2977979,13.6867448 81.4100845,15.8611566 81.217278,19.0591233 C81.1759327,19.7448934 80.5868781,20.2672795 79.9015877,20.2259052 C79.2162973,20.184531 78.6942767,19.595064 78.735622,18.9092939 C78.9668886,15.0734118 80.1194196,12.2503417 82.2548159,10.5210106 Z" id="路径-12" fill="#FFCA68" fill-rule="nonzero"></path>
                        <path d="M92.1994902,13.0089196 C92.7331623,12.5767301 93.5159027,12.6593009 93.9477898,13.1933466 C94.3796769,13.7273922 94.2971639,14.5106805 93.7634918,14.94287 C92.2424722,16.1746538 91.3547588,18.3490655 91.1619524,21.5470322 C91.1206071,22.2328024 90.5315524,22.7551884 89.846262,22.7138142 C89.1609716,22.6724399 88.638951,22.082973 88.6802963,21.3972028 C88.9115629,17.5613208 90.064094,14.7382507 92.1994902,13.0089196 Z" id="路径-12" fill="#FFCA68" fill-rule="nonzero"></path>
                        <path d="M102.144165,14.2528741 C102.677837,13.8206846 103.460577,13.9032554 103.892464,14.4373011 C104.324351,14.9713467 104.241838,15.754635 103.708166,16.1868245 C102.187147,17.4186083 101.299433,19.59302 101.106627,22.7909867 C101.065281,23.4767568 100.476227,23.9991429 99.7909364,23.9577687 C99.105646,23.9163944 98.5836253,23.3269274 98.6249706,22.6411573 C98.8562372,18.8052753 100.008768,15.9822052 102.144165,14.2528741 Z" id="路径-12" fill="#FFCA68" fill-rule="nonzero"></path>
                        <path d="M112.088839,14.2528741 C112.622511,13.8206846 113.405251,13.9032554 113.837138,14.4373011 C114.269026,14.9713467 114.186513,15.754635 113.65284,16.1868245 C112.131821,17.4186083 111.244107,19.59302 111.051301,22.7909867 C111.009956,23.4767568 110.420901,23.9991429 109.735611,23.9577687 C109.05032,23.9163944 108.5283,23.3269274 108.569645,22.6411573 C108.800912,18.8052753 109.953443,15.9822052 112.088839,14.2528741 Z" id="路径-12" fill="#FFCA68" fill-rule="nonzero"></path>
                        <path d="M122.033513,14.2528741 C122.567185,13.8206846 123.349926,13.9032554 123.781813,14.4373011 C124.2137,14.9713467 124.131187,15.754635 123.597515,16.1868245 C122.076495,17.4186083 121.188782,19.59302 120.995975,22.7909867 C120.95463,23.4767568 120.365575,23.9991429 119.680285,23.9577687 C118.994995,23.9163944 118.472974,23.3269274 118.514319,22.6411573 C118.745586,18.8052753 119.898117,15.9822052 122.033513,14.2528741 Z" id="路径-12" fill="#FFCA68" fill-rule="nonzero"></path>
                        <path d="M129.699822,21.4721175 C129.911858,17.9551932 130.93198,15.4564522 132.760188,13.9758948" id="路径-12" stroke="#FFCA68" stroke-width="2" stroke-linecap="round"></path>
                    </g>
                    <g id="鞋" transform="translate(89.028047, 383.933455) rotate(48.000000) translate(-89.028047, -383.933455) translate(2.028047, 342.933455)">
                        <g id="编组" transform="translate(0.000000, 1.525616)">
                            <mask id="mask-16" fill="white">
                                <use xlink:href="#path-15"></use>
                            </mask>
                            <use id="路径-10" fill="#FFFFFF" xlink:href="#path-15"></use>
                            <path d="M61.3579568,-1.71807462 L45.2704008,8.38056036 L45.5234261,8.88580673 C51.838751,21.4963825 58.7262226,28.0690171 66.2396684,28.5011266 L67.9329838,28.590709 C78.1574753,29.0886896 95.8408576,29.2383477 111.455433,28.5991142 L113.247391,28.5218305 C138.82474,27.3613937 156.752535,24.2842367 163.367308,18.71976 L163.831826,18.3289988 L163.452566,17.8549381 C158.925675,12.1964936 152.937257,8.97598364 145.522732,8.2090666 L140.452179,7.6534144 C129.6242,6.43208618 106.178509,3.65863553 70.1209877,-0.666273523 L61.3579568,-1.71807462 Z M46.8891395,8.83252916 L61.6457931,-0.431199858 L107.991644,5.10940655 C128.429717,7.53557321 140.896493,8.98113614 145.394925,9.44642883 L145.982195,9.51288794 C152.406477,10.3031166 157.65331,13.0463548 161.749976,17.7546635 L162.085761,18.1497482 L161.890141,18.2967939 C155.127507,23.2221982 138.007896,26.1034691 114.049644,27.2393277 L113.19109,27.2791525 C96.3093239,28.0450733 76.4994795,27.8451765 66.3109923,27.2592214 L65.9631812,27.2343029 C59.3608917,26.6678032 53.1077534,20.7970118 47.2499167,9.53397605 L46.8891395,8.83252916 Z" id="路径-11" fill="#A4C1FF" fill-rule="nonzero" mask="url(#mask-16)"></path>
                            <path d="M1.4993632,35.1117527 C17.0582923,33.7394344 30.8926989,41.329298 43.002583,57.8813433 L1.24308429,66.7487708 L1.4993632,35.1117527 Z" id="路径-15" fill="#FFC659" mask="url(#mask-16)"></path>
                            <path d="M3.13408897,37.4711883 C17.0286957,36.2362833 29.3832502,43.066157 40.1977527,57.9608095 L2.90522395,65.9403219 L3.13408897,37.4711883 Z" id="路径-15" fill="#FFBB3C" mask="url(#mask-16)"></path>
                            <polygon id="路径-13" fill="#4C76D0" mask="url(#mask-16)" points="5.67849159 64.9873118 173.436966 33.0271571 176.496968 41.5252856 10.4468852 85.4178064"></polygon>
                            <path d="M6.44267892,9.34039301 L-4.56580382,9.34039301 L0.101713155,38.5688699 L4.93373578,36.2292273 C9.38551379,33.2866735 13.2840933,26.751257 16.7534727,16.580315 L17.1463277,15.4111451 L6.44267892,9.34039301 Z M6.11473163,10.5840171 L15.6404866,15.9865114 L15.5797781,16.1704078 C12.1909519,26.1071957 8.41892353,32.4353127 4.31993225,35.1507131 L1.06532324,36.7207447 L-3.10771073,10.5840171 L6.11473163,10.5840171 Z" id="路径-14" fill="#A4C1FF" fill-rule="nonzero" mask="url(#mask-16)"></path>
                            <polygon id="路径-16" fill="#79A5FF" mask="url(#mask-16)" points="6.27878962 72.2208343 72.6611903 57.7343526 6.27878962 75.763189"></polygon>
                            <path d="M61.3539793,0.776305981 L60.0293284,0.0110868725 L0.805058881,12.6960559 L8.65930383,69.8943722 C9.92719875,77.2688855 13.3484821,80.5855784 18.7963846,79.5596608 L19.10113,79.4981959 C24.0158745,78.4420375 69.5532476,66.9294716 155.796966,44.939688 L169.631348,41.4115143 C171.959786,40.8175626 173.366197,38.4471855 172.772663,36.1171265 C172.734729,35.9682082 172.688943,35.8214042 172.635496,35.677331 C169.954143,28.4493528 167.304214,23.2612891 164.667132,20.1013426 C159.733376,14.1893501 149.051899,11.0237422 134.903801,11.6432753 C130.759759,11.8247393 127.671358,12.2760368 122.638876,13.2986988 L119.706958,13.9008281 C111.344709,15.5929824 105.787122,15.8286069 96.7979097,14.1854185 C85.078835,12.0432231 73.2644978,7.57452205 61.3539793,0.776305981 Z M2.19280069,13.6702681 L59.8184592,1.32650782 L59.6115633,1.20713471 C72.0206676,8.43797313 84.3419938,13.1730698 96.5745345,15.4091245 C105.448594,17.0312635 111.08664,16.8546769 119.163868,15.2771297 L123.548725,14.3842392 C128.13567,13.4676516 131.076,13.0560363 134.958145,12.8860405 C148.757314,12.2817867 159.073309,15.339079 163.713006,20.8987079 C166.24177,23.9288603 168.833667,29.003308 171.470121,36.1102539 C171.508298,36.2131636 171.541002,36.3180237 171.568098,36.4243941 C171.992051,38.0887244 170.987471,39.7818534 169.324305,40.2061035 L84.7095997,61.7505893 C44.1163394,72.0578236 22.1511883,77.5704368 18.8401333,78.2819689 L18.5579919,78.3386948 C13.8920293,79.2111751 11.0449813,76.4340699 9.88759715,69.7042105 L2.19280069,13.6702681 Z" id="路径-10" fill="#4C76D0" fill-rule="nonzero"></path>
                        </g>
                        <mask id="mask-18" fill="white">
                            <use xlink:href="#path-17"></use>
                        </mask>
                        <use id="路径-9" fill="#FFFFFF" xlink:href="#path-17"></use>
                        <path d="M28.463181,2.81490345 L26.8857246,3.09740089 C16.7801481,4.94632078 9.55807658,7.04290797 5.19917042,9.40352549 C-1.24170658,13.3927508 -0.412049819,16.4549909 7.29064343,17.5038238 C19.135756,19.116707 43.59133,15.1628196 54.7945415,9.22215339 L55.6189713,8.77774037 C59.2108036,6.80769393 61.2097445,5.23661036 61.6758728,3.92269113 C62.3101188,2.13488295 60.6000404,1.17423327 57.1251415,0.83423243 C48.932273,0.238666627 39.3842969,0.900221576 28.463181,2.81490345 Z M57.0196408,2.07360141 C59.7503043,2.34097757 60.7238846,2.88789381 60.504419,3.50652205 C60.1513637,4.5017119 58.0292445,6.09909842 54.2125043,8.12298055 C43.2454464,13.9384228 19.0521526,17.8499057 7.45824447,16.2712277 L6.82984252,16.1807717 C0.84588698,15.2694341 0.620430389,13.7021242 5.82217538,10.4793642 C10.2276002,8.09475598 17.8644363,5.93596854 28.6776979,4.04019559 C39.5046216,2.1420274 48.9527911,1.4873878 57.0196408,2.07360141 Z" id="路径-9" fill="#4C76D0" fill-rule="nonzero"></path>
                        <ellipse id="椭圆形" fill="#4C76D0" cx="79.97645" cy="18.9517127" rx="2.48616858" ry="2.48790896"></ellipse>
                        <ellipse id="椭圆形" fill="#4C76D0" cx="89.9211243" cy="21.4396217" rx="2.48616858" ry="2.48790896"></ellipse>
                        <ellipse id="椭圆形" fill="#4C76D0" cx="99.8657987" cy="22.6835761" rx="2.48616858" ry="2.48790896"></ellipse>
                        <ellipse id="椭圆形" fill="#4C76D0" cx="109.810473" cy="22.6835761" rx="2.48616858" ry="2.48790896"></ellipse>
                        <ellipse id="椭圆形" fill="#4C76D0" cx="119.755147" cy="22.6835761" rx="2.48616858" ry="2.48790896"></ellipse>
                        <ellipse id="椭圆形" fill="#4C76D0" cx="129.699822" cy="21.4396217" rx="2.48616858" ry="2.48790896"></ellipse>
                        <path d="M82.2548159,10.5210106 C82.788488,10.0888212 83.5712284,10.171392 84.0031155,10.7054376 C84.4350026,11.2394833 84.3524896,12.0227716 83.8188175,12.454961 C82.2977979,13.6867448 81.4100845,15.8611566 81.217278,19.0591233 C81.1759327,19.7448934 80.5868781,20.2672795 79.9015877,20.2259052 C79.2162973,20.184531 78.6942767,19.595064 78.735622,18.9092939 C78.9668886,15.0734118 80.1194196,12.2503417 82.2548159,10.5210106 Z" id="路径-12" fill="#FFCA68" fill-rule="nonzero"></path>
                        <path d="M92.1994902,13.0089196 C92.7331623,12.5767301 93.5159027,12.6593009 93.9477898,13.1933466 C94.3796769,13.7273922 94.2971639,14.5106805 93.7634918,14.94287 C92.2424722,16.1746538 91.3547588,18.3490655 91.1619524,21.5470322 C91.1206071,22.2328024 90.5315524,22.7551884 89.846262,22.7138142 C89.1609716,22.6724399 88.638951,22.082973 88.6802963,21.3972028 C88.9115629,17.5613208 90.064094,14.7382507 92.1994902,13.0089196 Z" id="路径-12" fill="#FFCA68" fill-rule="nonzero"></path>
                        <path d="M102.144165,14.2528741 C102.677837,13.8206846 103.460577,13.9032554 103.892464,14.4373011 C104.324351,14.9713467 104.241838,15.754635 103.708166,16.1868245 C102.187147,17.4186083 101.299433,19.59302 101.106627,22.7909867 C101.065281,23.4767568 100.476227,23.9991429 99.7909364,23.9577687 C99.105646,23.9163944 98.5836253,23.3269274 98.6249706,22.6411573 C98.8562372,18.8052753 100.008768,15.9822052 102.144165,14.2528741 Z" id="路径-12" fill="#FFCA68" fill-rule="nonzero"></path>
                        <path d="M112.088839,14.2528741 C112.622511,13.8206846 113.405251,13.9032554 113.837138,14.4373011 C114.269026,14.9713467 114.186513,15.754635 113.65284,16.1868245 C112.131821,17.4186083 111.244107,19.59302 111.051301,22.7909867 C111.009956,23.4767568 110.420901,23.9991429 109.735611,23.9577687 C109.05032,23.9163944 108.5283,23.3269274 108.569645,22.6411573 C108.800912,18.8052753 109.953443,15.9822052 112.088839,14.2528741 Z" id="路径-12" fill="#FFCA68" fill-rule="nonzero"></path>
                        <path d="M122.033513,14.2528741 C122.567185,13.8206846 123.349926,13.9032554 123.781813,14.4373011 C124.2137,14.9713467 124.131187,15.754635 123.597515,16.1868245 C122.076495,17.4186083 121.188782,19.59302 120.995975,22.7909867 C120.95463,23.4767568 120.365575,23.9991429 119.680285,23.9577687 C118.994995,23.9163944 118.472974,23.3269274 118.514319,22.6411573 C118.745586,18.8052753 119.898117,15.9822052 122.033513,14.2528741 Z" id="路径-12" fill="#FFCA68" fill-rule="nonzero"></path>
                        <path d="M131.978188,13.0089196 C132.51186,12.5767301 133.2946,12.6593009 133.726487,13.1933466 C134.158374,13.7273922 134.075861,14.5106805 133.542189,14.94287 C132.02117,16.1746538 131.133456,18.3490655 130.94065,21.5470322 C130.899304,22.2328024 130.31025,22.7551884 129.624959,22.7138142 C128.939669,22.6724399 128.417648,22.082973 128.458994,21.3972028 C128.69026,17.5613208 129.842791,14.7382507 131.978188,13.0089196 Z" id="路径-12" fill="#FFCA68" fill-rule="nonzero"></path>
                    </g>
                    <g id="编组-5" transform="translate(54.000000, 289.000000)">
                        <mask id="mask-20" fill="white">
                            <use xlink:href="#path-19"></use>
                        </mask>
                        <use id="路径-48" fill="#FEC5B9" xlink:href="#path-19"></use>
                        <path d="M37.6109852,47.8203125 C22.7875066,38.6254006 11.2482871,28.1203926 2.99332682,16.3052885 C0.156505766,16.6756811 -1.26190476,16.8608774 -1.26190476,16.8608774 C-0.321432447,21.4888822 0.148803711,23.8028846 0.148803711,23.8028846 L16.7485817,40.7478966 L34.3625663,50.0567909 L37.6109852,47.8203125 Z" id="路径-55" fill="#F88175" mask="url(#mask-20)"></path>
                    </g>
                    <g id="编组-19" transform="translate(183.000000, 260.000000)">
                        <mask id="mask-22" fill="white">
                            <use xlink:href="#path-21"></use>
                        </mask>
                        <use id="路径-49" fill="#FEC5B9" xlink:href="#path-21"></use>
                        <path d="M10.2898843,40.456694 C29.6910661,35.4764594 44.2594874,29.6917334 53.9951481,23.1025161 L56.3425061,28.0764101 L13.4323894,49.3855993 L8.71128157,42.9911033 L10.2898843,40.456694 Z" id="路径-85" fill="#F88175" mask="url(#mask-22)"></path>
                    </g>
                    <g id="编组-2" transform="translate(144.000000, 146.000000)">
                        <mask id="mask-24" fill="white">
                            <use xlink:href="#path-23"></use>
                        </mask>
                        <use id="路径-41" fill="#84AFFF" xlink:href="#path-23"></use>
                        <path d="M14.7045898,6.08109154 C28.716919,16.8451688 36.4787598,31.3031397 37.9901123,49.4550044 C39.5014648,67.6068691 33.0408935,90.2767357 18.6083984,117.464604 L8.7902832,103.275796 L14.7045898,6.08109154 Z" id="路径-50" fill="#2F63D3" mask="url(#mask-24)"></path>
                        <path d="M14.7045898,6.08109154 C21.792806,11.2940927 28.6553955,19.2104769 35.2923584,29.830244 C45.2478027,45.7598946 76.8702627,96.432002 79.1186523,99.4678276 C80.6175788,101.491711 82.2549937,100.215136 84.0308971,95.6381007 L25.0494385,2.38902196 L14.7045898,6.08109154 Z" id="路径-51" fill="#C9DCFF" mask="url(#mask-24)"></path>
                    </g>
                    <g id="编组-3" transform="translate(11.000000, 122.000000)">
                        <mask id="mask-26" fill="white">
                            <use xlink:href="#path-25"></use>
                        </mask>
                        <use id="路径-40" fill="#84AFFF" xlink:href="#path-25"></use>
                        <path d="M61.7205756,5.24293945 L61.7205756,16.7922591 L120.569615,16.7922591 C138.054479,25.4771267 149.351928,35.7365603 154.461964,47.5705599 C162.127018,65.3215592 157.107576,88.264974 152.018975,99.4109265 C148.626574,106.841562 134.543059,135.00403 109.768429,183.898331 L120.569615,189.543032 L163.154081,94.9906275 L164.640634,43.5626166 L132.652201,11.7649716 L97.0282382,6.9200525 L71.528326,10.1174896 L70.0305011,3.29781768 L61.7205756,5.24293945 Z" id="路径-52" fill="#C9DCFF" mask="url(#mask-26)"></path>
                        <path d="M48.6899947,3.29781768 L48.6893636,25.7499 L98.9490173,25.7508496 C118.918847,25.7508496 132.396835,30.9934038 139.311216,41.5284767 L139.580743,41.9470838 C142.444071,46.4807273 143.804909,51.6585157 143.860722,57.3845583 C143.928646,64.3530971 142.134748,71.6441469 138.923071,79.6897213 C138.406723,80.9832257 137.870785,82.2556255 137.267228,83.6333056 L134.9509,88.8054951 C131.965524,95.3576238 118.508678,122.795335 94.5623418,171.156171 L90.5650969,179.226497 L89.4525641,178.671537 L106.934435,143.334933 C122.065488,112.693856 130.959398,94.4937526 133.607882,88.7518761 L135.761674,83.9662922 C136.514758,82.2698684 137.15663,80.7620448 137.769728,79.2261736 C140.926368,71.3184711 142.684408,64.173159 142.618357,57.3967507 C142.564698,51.8915966 141.263362,46.940204 138.531307,42.6144136 C132.053144,32.3572321 119.142965,27.1358577 99.729043,27.0002289 L98.9490173,26.9975163 L47.4475705,26.9975163 L47.4475705,3.29781768 L48.6899947,3.29781768 Z" id="路径-53" fill="#FFFFFF" fill-rule="nonzero" mask="url(#mask-26)"></path>
                    </g>
                    <g id="编组-11" transform="translate(83.000000, 0.000000)">
                        <mask id="mask-28" fill="white">
                            <use xlink:href="#path-27"></use>
                        </mask>
                        <use id="路径-43" fill="#FEC5B9" xlink:href="#path-27"></use>
                        <path d="M16.40703,89.5691578 L48.5031669,104.948225 C50.1363047,105.730739 52.0914406,105.318436 53.2695137,103.943077 C57.3896349,99.132981 60.3508163,95.5862154 62.1530579,93.3027805 C72.3776478,80.3482541 77.7350051,72.5551843 78.6542136,70.8781352 C80.454141,67.5942595 85.4409842,62.1942872 88.6467252,60.9449711 C91.8524663,59.6956551 103.067095,53.5731289 110.804232,28.2456267 L110.306883,52.6754437 L86.1660561,83.8167986 L69.0549048,99.1956102 L59.9398881,110.356085 L49.7494088,112.724793 L39.7480918,109.811084 L29.5554871,100.180713 C23.724346,96.0491906 20.8087754,93.9834296 20.8087754,93.9834296 C20.8087754,93.9834296 19.6969782,92.5120057 17.4733837,89.5691578 L16.40703,89.5691578 Z" id="路径-57" fill="#F88175" mask="url(#mask-28)"></path>
                        <path d="M19.9261187,91.979765 C27.2043674,92.7516496 32.8274198,90.9708991 36.7952758,86.6375135 C40.7631318,82.3041278 55.51618,63.9587217 81.0544204,31.6012951 L34.9716652,78.2733366 L10.6652895,89.2125556 L19.9261187,91.979765 Z" id="路径-398" fill="#FFEAEA" mask="url(#mask-28)"></path>
                        <path d="M95.685308,20.7428384 L96.5824305,20.2771356 C104.398624,16.2940989 109.341564,15.7777196 111.335609,19.0346343 C113.861138,23.1596345 110.211462,27.2743526 104.904636,29.2615355 L104.608136,29.3697323 C102.351309,30.1719564 99.9455712,31.6342863 97.3958275,33.7609241 C97.1328768,33.9802406 96.7406289,33.9464074 96.5197173,33.6853555 C96.2988056,33.4243036 96.3328849,33.0348881 96.5958356,32.8155717 C99.085188,30.7393038 101.463866,29.2582276 103.735912,28.3758054 L104.188901,28.2073041 C109.016305,26.4913288 112.268804,22.9359669 110.272855,19.675942 C108.702212,17.1105795 104.062636,17.7153027 96.2695952,21.832788 C95.9664247,21.9929693 95.5898593,21.8788285 95.4285129,21.5778472 C95.2671664,21.2768659 95.3821375,20.9030198 95.685308,20.7428384 Z" id="路径-59" fill="#F88175" fill-rule="nonzero" mask="url(#mask-28)"></path>
                        <path d="M127.853009,9.7178856 C128.188949,9.64706058 128.519115,9.86001209 128.590455,10.1935261 C128.661795,10.5270401 128.447295,10.8548217 128.111355,10.9256467 C124.131692,11.7646652 120.606075,13.1476786 117.526975,14.9226126 C115.678725,15.9880279 114.105738,17.1282526 112.805204,18.2663541 C112.442882,18.5834232 112.123447,18.88168 111.846728,19.1561757 L111.453052,19.5607869 C111.371784,19.6477982 111.314204,19.7124076 111.280238,19.7525231 C111.059256,20.0135159 110.666998,20.0472442 110.404107,19.8278574 C110.141216,19.6084706 110.107243,19.219046 110.328225,18.9580533 L110.449995,18.8201329 C110.501263,18.7637315 110.56322,18.6971094 110.635895,18.6208883 L110.752949,18.4994352 C111.094806,18.1482969 111.50461,17.7586158 111.982826,17.3401273 C113.342632,16.1501576 114.981315,14.9623111 116.902487,13.8548599 C120.092446,12.0160222 123.740874,10.5848327 127.853009,9.7178856 Z" id="路径-60" fill="#F88175" fill-rule="nonzero" mask="url(#mask-28)"></path>
                        <path d="M128.753971,16.5482945 C129.078786,16.4375623 129.432519,16.6092087 129.544056,16.9316776 C129.655594,17.2541465 129.482699,17.6053253 129.157885,17.7160575 L126.829307,18.5196782 C117.436586,21.8031913 111.918427,24.2728494 110.404077,25.8338405 C110.165839,26.0794159 109.772183,26.0867587 109.524821,25.8502412 C109.27746,25.6137237 109.270063,25.2229102 109.508301,24.9773348 C111.344322,23.0847659 117.705274,20.3148977 128.753971,16.5482945 Z" id="路径-61" fill="#F88175" fill-rule="nonzero" mask="url(#mask-28)"></path>
                        <path d="M110.273516,24.2740481 C112.759821,23.560299 117.955532,23.9032267 125.963778,25.2759593 C126.302202,25.3339701 126.529179,25.6533628 126.470747,25.9893427 C126.412314,26.3253227 126.090598,26.5506612 125.752174,26.4926503 L123.997073,26.201283 C117.171416,25.1070491 112.685016,24.8670499 110.618984,25.4601501 C110.289069,25.5548597 109.944284,25.3661189 109.848885,25.0385859 C109.753487,24.7110528 109.943601,24.3687576 110.273516,24.2740481 Z" id="路径-62" fill="#F88175" fill-rule="nonzero" mask="url(#mask-28)"></path>
                        <path d="M115.157158,1.812556 C126.443495,-1.56942728 133.464068,2.90856062 129.107304,9.78910539 L128.821048,10.2207959 L128.853033,10.2484322 C131.358537,12.4861117 131.751138,14.808586 129.939354,16.9842018 L129.809769,17.1326122 L129.963197,17.3006517 C131.195978,18.6868682 131.86732,19.9764167 131.951353,21.1845133 L131.960361,21.4421499 C131.960361,24.0789708 130.572136,25.5783649 126.474534,26.2683896 L126.194407,26.3125612 L126.251128,26.4640603 C126.913772,28.3126968 126.872839,29.7826648 126.059534,30.8377946 L125.924688,31.0009414 C124.499011,32.6123395 121.12358,32.917452 119.108207,31.9262411 C118.702225,31.7265691 116.705663,30.4672915 116.48236,30.334666 C115.27257,29.6161408 114.251516,29.1347713 113.294179,28.8809298 C112.614965,28.7008339 111.999829,28.6479355 111.447953,28.7305112 L111.30638,28.7560204 L111.179881,29.2157963 C109.313064,35.8705528 107.492588,40.6511855 105.484841,44.9930972 L105.242998,45.5121126 C105.097909,45.8211436 104.727951,45.9548947 104.416672,45.8108542 C104.105394,45.6668137 103.97067,45.2995267 104.115758,44.9904957 C106.192891,40.5663015 108.060497,35.733881 109.982322,28.8826884 L110.293794,27.7576029 L110.618074,27.6565925 C111.529565,27.3726712 112.530384,27.4004345 113.615093,27.6880489 C114.584488,27.9450873 115.57309,28.3889385 116.694059,29.0267994 L117.120848,29.2751055 C117.398067,29.4397533 119.323927,30.6544372 119.660292,30.8198701 C121.210815,31.5824557 123.976035,31.3325015 124.990284,30.1861277 C125.646967,29.4438995 125.643903,28.1856563 124.87646,26.3563884 L124.748917,26.0628032 L124.406851,25.3007792 L125.240886,25.1987907 C129.59841,24.665939 130.716687,23.6215016 130.716687,21.4421499 C130.716687,20.4370731 130.079175,19.2247292 128.765533,17.8278315 L128.511292,17.563756 L128.076437,17.1221925 L128.521349,16.6906156 C130.435334,14.8339965 130.24524,13.0425644 127.8237,10.9938004 L127.590139,10.800965 L127.125564,10.4263559 L127.484866,9.95115454 C132.124378,3.81507626 126.351793,-0.252238228 115.516526,2.99458044 C107.799012,5.3071556 96.4371222,14.9082315 81.5217879,31.7802755 C81.2952508,32.0365316 80.9023585,32.0619496 80.6442385,31.8370483 C80.3861186,31.612147 80.3605157,31.2220918 80.5870528,30.9658357 L81.8006365,29.6002536 C96.2697795,13.4059694 107.360701,4.14878665 115.157158,1.812556 Z" id="路径" fill="#F88175" fill-rule="nonzero"></path>
                    </g>
                    <g id="编组-12" transform="translate(81.000000, 87.000000)">
                        <mask id="mask-30" fill="white">
                            <use xlink:href="#path-29"></use>
                        </mask>
                        <use id="路径-45" fill="#FEC5B9" xlink:href="#path-29"></use>
                        <polygon id="路径-397" fill="#FFEAEA" mask="url(#mask-30)" points="14.4209315 3.57201266 111.629073 56.0657532 105.169492 44.6812126 15.37548 0.626995776"></polygon>
                        <path d="M125.644345,80.629059 C125.873882,80.375227 126.265121,80.3560848 126.518201,80.5863038 C130.438966,84.1528987 133.841839,88.690999 136.728114,94.1972048 C136.887109,94.5005225 136.770841,94.8756839 136.468421,95.0351511 C136.166002,95.1946183 135.791952,95.0780044 135.632957,94.7746867 C132.811514,89.3921617 129.495754,84.9702364 125.686974,81.5055108 C125.433894,81.2752918 125.414808,80.882891 125.644345,80.629059 Z" id="路径-64" fill="#F88175" fill-rule="nonzero" mask="url(#mask-30)"></path>
                        <path d="M1.89218088,28.2016307 C24.0425384,38.4197885 45.9012955,48.9025398 67.4684521,59.6498847 C76.6876075,64.3053029 82.6667258,67.4744668 85.4058072,69.1573766 C91.1944187,72.7139378 94.3422569,75.2700931 97.9137149,78.5503459 C101.485173,81.8305988 103.841582,85.7625394 106.131592,89.5878347 C108.421602,93.4131301 110.230713,101.712076 114.930656,98.196567 L113.05237,102.763684 L106.607356,98.196567 L99.5104691,87.2292157 L88.9965407,76.9324878 L6.57252031e-14,30.7956572 C-20.8889036,18.8481485 -20.2581766,17.983473 1.89218088,28.2016307 Z" id="路径-58" fill="#F88175" mask="url(#mask-30)"></path>
                        <path d="M117.268031,82.3194621 C117.504333,82.071954 117.895945,82.0634393 118.14272,82.3004439 C123.293988,87.2477633 126.715978,92.5359939 128.397578,98.1634015 C128.495669,98.4916581 128.30987,98.8375171 127.982586,98.9358992 C127.655302,99.0342813 127.310467,98.8479311 127.212376,98.5196745 C125.595749,93.1096943 122.290992,88.0026309 117.286992,83.1967499 C117.040217,82.9597453 117.031728,82.5669701 117.268031,82.3194621 Z" id="路径-65" fill="#F88175" fill-rule="nonzero" mask="url(#mask-30)"></path>
                        <path d="M108.282929,83.2559865 C108.559913,83.055351 108.946619,83.1179109 109.14666,83.3957181 L109.895468,84.4406549 C114.041389,90.2553252 116.533097,94.2580442 117.388939,96.4950274 C117.511343,96.8149642 117.351979,97.173847 117.03299,97.2966144 C116.714,97.4193819 116.356181,97.2595445 116.233777,96.9396076 C115.379485,94.7066744 112.675504,90.4159464 108.143611,84.1222836 C107.94357,83.8444765 108.005944,83.456622 108.282929,83.2559865 Z" id="路径-66" fill="#F88175" fill-rule="nonzero" mask="url(#mask-30)"></path>
                        <path d="M109.082536,96.7173175 C111.210938,99.6797552 113.395323,100.130372 116.811358,96.7173175 C118.442347,100.967578 120.612233,102.882751 123.321016,102.462835 C127.38419,101.832961 127.804977,98.341538 127.804977,98.341538 C129.531824,101.988889 131.820021,103.319633 134.66957,102.33377 C138.943893,100.854975 136.180536,94.4859457 136.180536,94.4859457 C139.60664,95.7345848 142.238696,95.612488 144.076706,94.1196554 C146.83372,91.8804064 145.135771,85.9940083 143.523611,83.5623735 C141.911451,81.1307388 127.098732,64.2538121 109.918672,54.8611458" id="路径" stroke="#F88175" stroke-linecap="round"></path>
                    </g>
                    <path d="M196.275114,144.203296 C196.50158,143.954562 196.89331,143.930774 197.150066,144.150165 L198.063383,144.93954 C206.86596,152.637627 210.4046,158.446391 208.498606,162.494478 C207.116944,165.428951 204.260916,165.625303 200.726141,163.915697 C198.619241,162.896688 196.129524,161.043102 195.16193,160.043333 L195.028445,159.899983 C194.212585,158.983933 188.062201,155.440833 186.477456,155.077986 C186.144275,155.0017 185.938014,154.6782 186.016761,154.355428 C186.095507,154.032656 186.429441,153.83284 186.762622,153.909126 C188.543875,154.316966 194.606657,157.791414 195.866128,159.010878 L195.96714,159.115379 C196.711431,159.951071 199.21504,161.84242 201.279931,162.841112 C204.271293,164.287894 206.3591,164.144357 207.370608,161.996042 C209.016889,158.499553 205.40324,152.803783 196.329958,145.050912 C196.073202,144.831521 196.048647,144.45203 196.275114,144.203296 Z" id="路径-63" fill="#F88175" fill-rule="nonzero"></path>
                    <g id="编组-6" transform="translate(39.000000, 16.000000)">
                        <mask id="mask-32" fill="white">
                            <use xlink:href="#path-31"></use>
                        </mask>
                        <use id="路径-47" fill="#FEC5B9" xlink:href="#path-31"></use>
                        <path d="M15.1363788,23.9893934 C12.6405365,23.4894341 9.96500474,22.0561478 7.10978367,19.6895345 C9.11884501,22.1485008 11.7943767,24.2531241 15.1363788,26.0034044 L15.1296652,24.6028917 L15.1363788,23.9893934 Z" id="路径-56" fill="#F88175" mask="url(#mask-32)"></path>
                        <path d="M25.282959,1.3600803 C28.2996879,14.7179905 26.1191265,22.4286929 18.7412746,24.4921875 L26.7103643,24.4921875 L31.6470257,6.29014757 L27.5673616,4.4408921e-14 L25.282959,1.3600803 Z" id="路径-71" fill="#FFEAEA" mask="url(#mask-32)"></path>
                    </g>
                    <g id="编组-13" transform="translate(10.000000, 44.000000)">
                        <mask id="mask-34" fill="white">
                            <use xlink:href="#path-33"></use>
                        </mask>
                        <use id="路径-42" fill="#FFFFFF" xlink:href="#path-33"></use>
                        <path d="M43.8775326,1.60209892 C47.1693983,3.34672442 50.1555603,5.80199511 52.8360186,8.96791098 C56.856706,13.7167848 56.856706,13.7167848 59.1028846,17.0608632 C61.3490632,20.4049417 62.3480041,23.1523354 63.9039812,25.3495956 C71.2147873,35.67349 85.998562,43.0153499 87.7667199,44.6271319 C89.0568895,45.8031989 89.6580451,44.6972075 89.5701867,41.3091577 L56.1795245,1.60209892 L45.9658844,-1.23943662 L42.0945872,1.1454803 L43.8775326,1.60209892 Z" id="路径-67" fill="#C9DCFF" mask="url(#mask-34)"></path>
                        <path d="M30.7351003,1.5561042 C22.3507099,5.39724038 16.1364551,12.1855828 12.0923357,21.9211315 C8.04821632,31.6566802 4.71679331,53.2993274 2.09806669,86.849073 L-3.47192077,82.3855224 L8.44405756,5.85570257 L18.7119883,-2.08721929e-14 L29.0933902,-2.50292969 L30.7351003,1.5561042 Z" id="路径-68" fill="#C9DCFF" mask="url(#mask-34)"></path>
                        <path d="M26.3486562,36.3308346 C33.5516591,48.945693 47.8376552,62.8848831 69.2066444,78.1484048 L69.9927941,74.2395604 C52.7198314,61.3269467 40.3772297,51.0383519 32.9649892,43.3737759 L27.8409827,37.5121726 L26.3486562,36.3308346 Z" id="路径-69" fill="#6294FD" mask="url(#mask-34)"></path>
                        <path d="M72.7201363,32.7300514 C72.8833748,32.4294651 73.2587255,32.3184787 73.5585053,32.4821565 C73.8249763,32.6276478 73.9420419,32.9411847 73.850119,33.2201748 L73.8057352,33.322781 L56.722324,64.7800519 C56.5590854,65.0806383 56.1837348,65.1916247 55.8839549,65.0279469 C55.6174839,64.8824556 55.5004184,64.5689187 55.5923413,64.2899286 L55.6367251,64.1873224 L72.7201363,32.7300514 Z" id="路径-401" fill="#84AFFF" fill-rule="nonzero" mask="url(#mask-34)"></path>
                        <path d="M44.5014155,0.0394710276 C44.3302231,0.0394710276 44.1666989,0.110684905 44.0498206,0.236106649 C41.8086853,2.6410626 39.5381566,3.82134408 37.2261926,3.82134408 C34.9077535,3.82134408 32.5458728,2.63485326 30.1345702,0.220672963 C29.9613245,0.047220572 29.7022999,-0.00734550778 29.4740872,0.0815357764 C18.1379896,4.49657138 10.668459,12.7677021 7.10149278,24.8483803 C2.72657041,39.665462 -0.69522334,83.2474356 0.901456351,87.0875442 C1.00053247,87.3258281 1.23655294,87.4775654 1.49386107,87.4687939 L69.9006604,85.031891 L70.0087,85.018518 C70.288561,84.9584644 70.496775,84.7091845 70.496775,84.4125633 L70.4966528,75.4606197 L72.5214292,76.9958179 C72.8371091,77.2351155 73.2926256,77.1194282 73.456634,76.7583044 L88.3291994,44.0109727 C88.4543199,43.7354747 88.3626286,43.4096564 88.112339,43.2403749 L86.7408471,42.3050224 C74.79563,34.0889917 67.3456999,27.0991823 64.4015669,21.3823776 L64.2392782,21.0592706 C59.5056354,11.3921866 49.1161079,0.0394710276 44.5014155,0.0394710276 Z M44.7509306,1.29273239 L44.8788885,1.30903442 C49.0123977,1.93741007 58.4244192,12.2829593 62.9189134,21.1817852 L63.3004279,21.9455158 L63.4785959,22.2833656 C66.5893449,28.0479052 73.8767738,34.8884416 85.3524942,42.8510768 L86.9876111,43.9739718 L72.6511944,75.5399437 L70.2514447,73.7213091 L70.1617757,73.6642172 C69.763904,73.4554061 69.2606639,73.7404397 69.2606639,74.2156553 L69.2605417,83.8131831 L1.95676389,86.2102535 L1.95458881,86.1955258 C1.6501779,83.8241691 1.98023552,73.3162757 2.82185679,62.3849904 L3.01299957,59.9956401 C4.21620737,45.4817244 6.03989023,32.809945 8.28675119,25.2002277 L8.47227824,24.587035 C11.9369304,13.408539 18.8845421,5.71522636 29.3474531,1.46527926 L29.5517083,1.38321127 L29.9181108,1.72784201 C32.3293348,3.93922332 34.7668974,5.0607807 37.2261926,5.0607807 C39.8034791,5.0607807 42.2799961,3.82924361 44.6451451,1.40524131 L44.7509306,1.29273239 Z" id="路径-42" fill="#84AFFF" fill-rule="nonzero"></path>
                    </g>
                    <path d="M38.3072443,12.3063835 C39.0506823,7.7570835 41.1138453,4.84301275 44.4967333,3.56417129 C47.8796213,2.28532983 50.9016587,3.18060929 53.5628455,6.25000968 C54.7918266,7.58491538 57.3288077,7.74964843 61.1737886,6.74420881 C66.94126,5.23604939 68.1134629,7.23871225 68.6971108,8.40513176 C69.2807586,9.57155126 69.8716723,13.7905025 61.7172589,19.1600491 C56.2809833,22.7397468 52.3645415,24.1822768 49.9679336,23.4876389 C50.1723995,25.9868339 49.9469759,27.4892115 49.2916627,27.9947715 C48.308693,28.7531115 47.796966,25.4413079 46.6121884,24.4891225 C45.4274109,23.5369371 43.9103252,23.0847327 42.456266,24.4891225 C41.0022069,25.8935123 41.9557335,30.1363518 43.0811649,31.1317492 C44.2065962,32.1271466 45.4189767,33.7891346 44.4967333,34.6405934 C43.5744899,35.4920523 41.1092448,34.8091811 38.8494878,32.8199079 C36.5897309,30.8306346 30.6253589,26.2288131 31.0185468,19.0118259 C31.280672,14.2005011 33.7102379,11.9653537 38.3072443,12.3063835 Z" id="路径-46" fill="#1338A7"></path>
                    <path d="M64.8606993,273.054214 L128.261517,309.652732 C129.218141,310.204949 129.545978,311.428107 128.99376,312.384731 C128.992538,312.386848 128.991313,312.388963 128.990083,312.391075 L123.233762,322.279037 C122.679745,323.230704 121.460665,323.555492 120.506604,323.005609 L57.6445868,286.774391 C56.7227419,286.243075 56.378267,285.083015 56.86074,284.134693 L62.0782605,273.879431 C62.5791303,272.894949 63.7832451,272.502905 64.7677264,273.003775 C64.7991566,273.019765 64.8301584,273.036584 64.8606993,273.054214 Z" id="路径-44" fill="#6798FF"></path>
                    <path d="M62.0675558,273.660305 L57.3410732,282.763129 C56.5871157,284.215191 57.1227702,285.99613 58.5570971,286.806154 L120.161745,321.596885 C121.631831,322.427104 123.504598,321.934345 124.361652,320.491812 L129.590793,311.690159 C130.439096,310.227148 129.925967,308.361939 128.444686,307.524098 L66.2750329,272.361284 C66.2633451,272.355161 66.249273,272.347897 66.2281648,272.337002 C64.709261,271.567672 62.8464929,272.160135 62.0675558,273.660305 Z M65.6640087,273.423521 L65.7393681,273.463891 L127.83029,308.583704 C128.666778,309.056838 128.988706,310.076005 128.599343,310.926103 L128.508124,311.100088 L123.295367,319.873829 C122.781134,320.739349 121.657474,321.035004 120.775423,320.536873 L59.170775,285.746142 C58.3101789,285.260128 57.9887861,284.191564 58.4411607,283.320327 L63.1676433,274.217503 C63.6350055,273.317401 64.7526664,272.961923 65.6640087,273.423521 Z" id="路径-44" fill="#5D91FF" fill-rule="nonzero"></path>
                    <path d="M172.99596,242.243022 L236.317308,278.480988 C237.275988,279.029628 237.608391,280.251552 237.059751,281.210232 C237.056055,281.21669 237.052323,281.223128 237.048556,281.229544 L231.308224,291.005328 C230.753592,291.949867 229.542371,292.272544 228.591337,291.729124 L165.806848,255.854157 C164.878145,255.323497 164.531353,254.156057 165.019743,253.204446 L170.223216,243.065664 C170.727564,242.08296 171.933058,241.695175 172.915762,242.199523 C172.942821,242.213411 172.969561,242.227914 172.99596,242.243022 Z" id="路径-44" fill="#6798FF" transform="translate(201.109665, 266.956464) rotate(-59.000000) translate(-201.109665, -266.956464) "></path>
                    <path d="M169.445104,243.215478 L164.692726,252.488958 C163.934638,253.968242 164.473227,255.782569 165.915413,256.60778 L227.857577,292.050753 C229.335717,292.896537 231.218744,292.39454 232.080494,290.924963 L237.338284,281.9583 C238.191235,280.467861 237.675295,278.567684 236.185898,277.714135 L173.675633,241.892103 C173.663881,241.885865 173.649732,241.878465 173.628508,241.867366 C172.101283,241.083613 170.228309,241.687183 169.445104,243.215478 Z M173.061261,242.974255 L173.137033,243.015381 L235.568136,278.793607 C236.409207,279.275611 236.732898,280.313885 236.341403,281.17992 L236.249684,281.357167 L231.008367,290.295394 C230.491317,291.17714 229.361501,291.478339 228.474617,290.970868 L166.532453,255.527895 C165.667142,255.032769 165.343988,253.944172 165.798841,253.056602 L170.551219,243.783122 C171.021142,242.866145 172.144926,242.504003 173.061261,242.974255 Z" id="路径-44" fill="#5D91FF" fill-rule="nonzero" transform="translate(201.049759, 266.992736) rotate(-59.000000) translate(-201.049759, -266.992736) "></path>
                    <path d="M83,120 C61.1779547,104.152426 45.511288,90.4857597 36,79" id="路径-54" stroke="#84AFFF" stroke-linecap="round"></path>
                    <path d="M242.187127,69.0261553 C242.52082,68.9285974 242.872707,69.1124142 242.973088,69.4367216 C243.073469,69.761029 242.884333,70.1030184 242.55064,70.2005763 C237.045362,71.8100911 232.543382,74.7421058 229.030005,79.0053755 L228.643697,79.484551 C226.583512,82.0967228 224.154441,83.0600812 221.167867,82.700567 L220.81923,82.6559398 C219.174775,82.4313722 218.055742,82.0573984 214.694126,80.6292693 L211.766074,79.376339 C209.746454,78.5272162 208.298396,78.0011701 206.765505,77.5913033 C201.332759,76.138687 196.143424,78.4900742 191.129243,84.7629613 C190.915464,85.0304049 190.519082,85.078783 190.243898,84.8710168 C189.968715,84.6632506 189.918937,84.278017 190.132716,84.0105734 C195.432412,77.3804987 201.111006,74.8074187 207.100241,76.4088299 C208.821509,76.8690652 210.420721,77.4624122 212.743779,78.4525713 L215.197235,79.5044211 C218.646815,80.9694375 219.63779,81.2806011 221.322982,81.4834592 C223.767846,81.7777642 225.697178,81.063157 227.42696,79.003015 L227.642166,78.7384649 C231.371589,74.0098167 236.225371,70.7691253 242.187127,69.0261553 Z" id="路径-392" fill="#C5DAFE" fill-rule="nonzero"></path>
                </g>
            </g>
        </g>
    </g>
</svg>